<svg id="Layer_2" xmlns="http://www.w3.org/2000/svg" viewBox="0 0 386.12 596.3">
    <defs>
        <style>
            .cls-1 {
                fill: #fff;
            }
        </style>
    </defs>
    <g id="Layer_1-2" data-name="Layer_1">
        <g>
            <path class="cls-1" d="M324.54,530.76l-1.04-.1c-25.39-2.49-110.69-11.2-142.46-18.63-37.79-8.85-58.58-102.72-59.32-106.24-.2-.74-.1-1.56.29-2.25.42-.75,1.12-1.29,1.92-1.5l.1-.02h.1c.15-.04.3-.05.45-.05,1.45,0,2.74.94,3.15,2.28l.04.14.02.14c.16.87,20.94,93.6,54.59,101.44,32.36,7.55,122.06,16.54,138.43,18.15l-8.56-42.29c-14.41-1.33-93.88-9.2-107.76-22.42-12.74-11.86-8.48-39.41-5.07-61.54l.25-1.68c1.11-7.5,2.07-13.97,2.07-18.28,0-1.72,1.28-3.08,2.93-3.14.09,0,.18-.01.27-.01,1.65,0,2.89,1.34,2.89,3.12.11,4.94-.88,11.73-2.29,20.76-2.87,18.52-7.21,46.52,3.26,56.28,10.06,9.56,71.41,17.67,106.07,20.95l.22.02c1.39.08,2.57,1.13,2.78,2.51l9.87,48.62c.17.99-.09,1.95-.69,2.64-.35.46-1.08,1.08-2.39,1.08h-.15Z"/>
            <path class="cls-1" d="M68.32,539.03c-8.61,0-19.41-1.64-24.23-5.3-.74-.49-1.23-1.26-1.34-2.13-.1-.8.13-1.59.64-2.2,1.44-2.33,12.15-21.8,2.47-71.9-8.45-43.29-9.27-63.76-3.13-78.23,6.52-15.35,20.85-23.34,44.59-36.58,8.82-4.83,19.52-10.79,32.15-18.56,3.02-2.14,7.04-5.35,7.42-8.65.19-1.45-.46-2.92-1.99-4.55-1.11-1.12-1.06-3.07.14-4.32.6-.6,1.37-.91,2.19-.91.93,0,1.78.39,2.36,1.08,2.69,2.95,3.86,6.12,3.48,9.44-.6,5.53-5.72,9.87-10.12,13.03l-.11.07c-13.26,8.13-24.31,14.28-32.46,18.73l-.18.1c-22.63,12.65-36.28,20.29-41.98,34.06-5.41,13.05-4.42,32.45,3.77,74.11,8.68,44.86,1.67,66.29-1.95,73.68,4.16,1.73,11.22,2.85,18.4,2.85,2.97,0,5.74-.19,8.26-.57,4.41-.74,7.85-1.99,9.84-3.57-6.59-17.4-3.36-31.67-2.88-33.55,5.22-26.67,6.65-45.45,7.6-57.88,2.89-38.54,5.31-39,67.34-50.78,3.94-.77,8.1-1.57,12.5-2.42,5.32-1.03,11-2.12,17.15-3.33,11.41-2.29,19.75-7.75,24.77-16.21,11.93-19.69,3.96-49.4,3.44-51.23l-.05-.16c-.24-.75-.16-1.56.21-2.27.4-.76,1.1-1.32,1.95-1.58.28-.08.56-.12.84-.12,1.39,0,2.62.94,3,2.28.4,1.35,9.65,33.72-4.03,56.27-6.01,10.02-15.74,16.45-28.92,19.1-9.76,1.95-19.47,3.81-29.7,5.69-30.29,5.83-45.5,8.75-53.15,14.37-7.31,5.37-7.91,13.36-9.22,30.88l-.05.65c-1.03,13.51-2.44,32.02-7.67,58.04-.01.07-.03.14-.05.22-.8,3.59-2.91,16.45,3.33,31.51.44.95.31,2.07-.37,3.03-3.12,4.52-9.91,6.38-15.05,7.14-3.27.45-6.2.66-9.25.66Z"/>
            <path class="cls-1" d="M377.44,567.67c-1.6,0-6.45,0-21.8-21.56-1.14-.6-4.79-2.39-11-4.31-6.25-2.2-12.26-5.01-14.52-6.06-.24-.11-.43-.2-.57-.27h-.05l-.38-.19c-1.38-.69-2.05-2.37-1.57-3.91l.04-.13.06-.12c.51-1.04,1.57-1.69,2.78-1.69.51,0,1.01.12,1.46.34.05.02,7.35,3.53,14.77,6.04,7.72,2.63,12.18,4.91,12.59,5.16l-.85,1.61.96-1.54c.24.15.7.44,1.01.97,7.35,10.52,14.46,18.13,16.69,19.38.3-.29.8-.9,1.27-2.01,2.24-5.3,2.5-14.57-1.96-23.32l-.85-1.76c-1.58-3.27-3.75-7.75-6.1-12.96l-.13-.29c-7.98-17.31-22.85-49.53-27.78-53.54-1.05-.8-1.64-.9-2.02-.9-.14,0-.28.01-.43.04-1.86.32-3.62,3.63-4.29,4.87l-.21.4c-.41.75-.8,1.47-1.6,1.86-.96.61-7.53,5.2-11.66,8.25l-.13.09c-.51.31-1.09.48-1.68.48-.96,0-1.88-.42-2.51-1.16l-.11-.13-.08-.14c-.81-1.39-.47-3.22.78-4.17,7.82-5.65,10.41-7.46,11.62-8.2,0,0,0,0,0-.01,1.18-2.24,3.86-7.22,8.62-8.22.52-.12,1.09-.19,1.67-.19,2.03,0,4.02.8,5.94,2.37,5.52,4.36,16.23,26.96,29.66,56.04,1.11,2.32,2.15,4.53,3.11,6.54,1.51,3.18,2.81,5.93,3.79,7.92,5.69,11.63,4.66,22.7,2.04,28.65-1.23,2.98-3.15,4.99-5.38,5.61l-.15.04c-.47.09-.71.1-1.04.1Z"/>
            <path class="cls-1" d="M29.18,596.3c-23.88-.89-28.51-12.02-29.16-18.58-.63-5.78,13.9-14.55,22.83-19.37l21.7-24.32c.65-.69,1.5-1.06,2.37-1.06.81,0,1.58.32,2.15.89,1.18,1.13,1.27,2.97.18,4.26l-22.33,25.1-.33.16c-.11.08-.2.13-.29.18-11.94,6.47-19.11,12.19-20.05,13.8,1.19,10.34,14.93,12.4,23.06,12.71.82.03,1.61.05,2.38.05,12.49,0,19.63-4.42,27.2-9.1l.71-.43c4.55-2.77,9.25-5.64,15.25-7.74,13.59-4.91,21.6-9.57,24.47-14.23.69-1.16-1.5-4.46-3.93-6.61l-.08-.08c-.33-.33-.87-1-.92-1.92-.05-.38-.51-3.39-2.11-6.31-1.86-3.56-2.93-8.27-3.11-9.57h0c-.13-.82.06-1.64.55-2.31.49-.68,1.23-1.12,2.08-1.26.11-.02.3-.04.49-.04,1.52,0,2.83,1.16,3.01,2.64.05.29.83,4.66,2.46,7.71,1.45,2.67,2.31,5.58,2.58,7.28,1.91,1.85,7.56,8.03,4.3,13.62-3.69,6.13-12.2,11.32-27.58,16.86-5.23,1.85-9.42,4.37-13.48,6.8l-1.27.76c-8.06,4.95-16.41,10.09-30.67,10.09h-2.44Z"/>
            <path class="cls-1" d="M20.31,589.93c-.46,0-.9-.02-1.32-.03-.35-.01-.68-.03-1.01-.03-4.45-.06-9.79-2.47-15.47-6.96l-.19-.15-.1-.06-.16-.16c-1.2-1.15-1.33-2.95-.31-4.29l.05-.06.05-.06c.59-.65,1.44-1.03,2.32-1.03.69,0,1.37.24,1.9.66,0,0,.15.11.24.19,4.56,3.62,8.72,5.65,11.71,5.72h.26c.56.01,1.17.02,1.82.02,7.47,0,18.21-1.11,35.14-9.8,15.45-8.01,31.34-19.39,39.43-25.46.27-.2.43-.32.54-.41.5-.42,1.16-.65,1.88-.65.98,0,1.89.43,2.43,1.15,1.06,1.38.84,3.25-.51,4.34h0c-1.77,1.38-21.36,16.43-40.96,26.52-20.57,10.54-33.49,10.54-37.74,10.54Z"/>
            <path class="cls-1" d="M380.86,562.63c-1.59,0-2.95-1.19-3.09-2.71-.26-1.57-7.8-27.29-21.01-48.29-11.77-18.5-24.37-33.9-27.96-38.17-.04-.05-.08-.09-.1-.12-.57-.63-.86-1.45-.8-2.28.06-.81.46-1.57,1.09-2.09.54-.5,1.24-.78,1.98-.78.84,0,1.65.34,2.3.97l.18.18.06.1c.07.08.18.21.32.39,5.95,7.16,17.52,21.7,28.14,38.57,13.79,21.7,21.69,49.02,21.97,50.78l.02.14v.15c0,1.67-1.25,3.03-2.91,3.17h-.07s-.13,0-.13,0Z"/>
            <path class="cls-1" d="M195.67,282.93c-9.48,0-28.56-1.41-49.8-10.82-25.75-11.3-30.29-13.21-39.6-14.2-9.08-.86-12.93-9.05-14.28-13.07-2.53-.1-6.62-.53-9.3-2.19-1.99-1.29-3.12-3.45-3.12-5.94,0-2.7,1.57-5.55,3.83-6.94,1.98-1.31,5.11-1.9,7.38-2.15h.12c.1-.02.21-.03.31-.03,1.49,0,2.79,1.09,3.09,2.59l.03.18v.18c0,1.74-1.16,3.07-2.82,3.23-1.43.16-3.91.65-4.84,1.23-.37.24-.88,1.12-.88,1.75,0,.38.1.58.28.73,1.44.81,4.69,1.18,7.32,1.18.28,0,.54,0,.75-.01.07,0,.15,0,.22,0,1.34,0,2.56.99,2.9,2.36l.05.21v.03c.27,1.08,2.66,9.86,9.6,10.5,10.26,1.09,14.9,3.11,40.63,14.32l.91.4c21.01,9.23,40.29,10.23,47.61,10.23,4.68,0,8.98-.37,12.12-1.03,6.22-1.36,15.22-18.16,18.66-26.85.5-1.19,1.68-1.97,2.95-1.97.38,0,.75.07,1.1.21.85.37,1.46,1.04,1.74,1.85.26.74.22,1.56-.11,2.26-.84,2.12-11.42,27.94-23.11,30.57-2.08.45-6.6,1.21-13.72,1.21Z"/>
            <path class="cls-1" d="M84.03,235.75c-.83,0-1.48-.4-1.9-.7l-.26-.19-.13-.19c-2.69-3.08-3.56-6.87-2.42-10.46,1.05-3.64,4.6-5.68,9.99-5.68,1.14,0,2.02.09,2.45.15.85.09,1.63.56,2.12,1.27.42.62.58,1.39.44,2.13-.12,1.54-1.38,2.72-2.98,2.72-.13,0-.26,0-.39-.02h0c-.13-.01-.67-.06-1.39-.06-2.69,0-4.12.63-4.3,1.22-.46,1.57-.1,3.11,1.07,4.53.01.01.02.03.03.04.52.51.82,1.2.86,1.94.04.86-.28,1.72-.9,2.35-.64.65-1.36.94-2.29.94Z"/>
            <path class="cls-1" d="M91.68,224.21l-.11-.02c-1.69-.22-2.9-1.62-2.81-3.24-.08-1.22-3.07-6.02-7.54-6.28-.68-.06-1.3-.08-1.88-.08-2.48,0-3.65.49-3.9.61-.53.4-1.17.63-1.82.63-.81,0-1.61-.34-2.25-.95-.61-.64-.89-1.4-.86-2.21.03-.83.39-1.63,1-2.2.58-.51,2.71-2.06,7.65-2.06.81,0,1.66.04,2.55.12,3.59.21,7.27,2.13,10.04,5.26,2.13,2.41,3.32,5.17,3.19,7.4-.04,1.64-1.41,3.01-3.04,3.01h-.19Z"/>
            <path class="cls-1" d="M99.81,221.07c-1.32,0-2.09-.76-2.5-1.17l-.54-.53v-.26c-.84-1.33-4.42-6.48-10.45-8.43-.92-.31-1.81-.46-2.69-.46-2.63,0-5.31,1.41-7.55,3.97-.04.05-.08.09-.11.12-.61.74-1.47,1.17-2.4,1.17-.62,0-1.23-.19-1.78-.55l-.14-.1c-1.26-1.01-1.54-2.92-.62-4.27l.06-.08.07-.08c.49-.62,5.26-6.37,12.49-6.37,1.55,0,3.11.26,4.65.78,9.71,3.11,14.26,11.8,14.29,11.89.69,1.47.21,3.11-1.2,3.96-.6.42-1.27.42-1.58.42Z"/>
            <path class="cls-1" d="M78.74,234.42c-5.51,0-8.84-4.51-10.01-8.37-1.39-5.01-.06-11.5,6.1-14.03l.1-.04.11-.03c.31-.09.63-.13.95-.13,1.33,0,2.49.75,2.95,1.92l.03.07.02.08c.45,1.51-.28,3.18-1.7,3.89l-.08.04-.08.03c-3.06,1.18-2.95,4.61-2.4,6.45.53,1.9,1.97,3.91,3.92,3.91.22,0,.45-.02.68-.07l.09-.02h.09c.13-.02.26-.03.38-.03,1.65,0,2.99,1.13,3.17,2.65.13.81-.06,1.62-.54,2.29-.47.66-1.19,1.1-1.97,1.23-.54.11-1.13.16-1.8.16Z"/>
            <path class="cls-1" d="M166.38,249c-4.45,0-8.66-.34-12.52-1.02l-2.49-.39c-3-.47-5.84-.91-8.52-1.32l-.31-.05c-14.64-2.25-24.31-3.73-28.47-9.33-.79-1.03-1.52-2.58-2.44-4.54l-.72-1.52c-4.09-8.51-10.27-21.36-22.58-21.36-2.59,0-5.4.56-8.36,1.68-.38.14-.75.21-1.13.21-1.28,0-2.41-.76-2.88-1.95-.56-1.6.17-3.33,1.65-4l.11-.04c3.73-1.42,7.34-2.13,10.71-2.13,16.23,0,23.98,16.38,28.14,25.17.25.5.48.98.71,1.44.71,1.44,1.37,2.8,1.82,3.38,2.69,3.52,12.43,5.04,24.77,6.95,3.42.52,7.1,1.1,11.06,1.75,3.48.59,7.27.89,11.28.89,12.81,0,24.53-3.03,27.82-3.96.06-.02.11-.03.15-.04.3-.09.6-.14.91-.14,1.36,0,2.52.87,2.95,2.21l.04.15c.35,1.49-.47,3.05-1.9,3.65l-.16.07-.17.03c-.07.02-.24.06-.5.13-12.46,3.39-22.62,4.1-28.96,4.1Z"/>
            <path class="cls-1" d="M174.28,312.67c-16.26,0-28.48-1.32-36.32-3.91-10.3-3.27-12.58-8.48-12.68-12.28-.46-9.64.16-22.82.57-29.81l.03-.44c0-1.63,1.34-2.96,3.05-2.96.08,0,.3.01.3.01h.06c1.61.23,2.74,1.53,2.74,3.16,0,.02,0,.22-.03.56-.41,6.86-1.03,19.78-.62,29.22.09,1.16.66,3.02,4.53,5.07,6.69,3.44,19.63,5.26,37.39,5.26,21.15,0,41.18-2.58,44.23-3.58,2.25-3.15,3.72-10.19,3.94-19.03,0-1.58,1.42-2.96,3.11-2.96.96,0,1.84.4,2.41,1.11.5.61.72,1.38.62,2.16-.15,7.65-1.23,17.79-5.51,22.97-2.74,3.61-32.14,5.45-47.82,5.45Z"/>
            <path class="cls-1" d="M134.32,235.2c-1.67,0-3.03-1.35-3.03-3.02v-.02c-.31-4.46-1.51-28.33,4.55-60.05,6.66-33.42-20.57-48.09-32.2-54.35-2.44-1.29-3.86-2.08-4.86-2.84l-.19-.14-.15-.19c-.87-1.12-1.11-2.98.15-4.24.55-.56,1.34-.88,2.21-.88.71,0,1.41.22,1.97.63l.12.09.11.11c.34.29,2.09,1.22,3.37,1.9l.44.24c11.62,6.34,42.49,23.19,35.2,60.89-5.97,31.03-4.92,54.12-4.64,58.44,0,.03,0,.06,0,.09.08.86-.22,1.73-.81,2.38-.56.62-1.35.98-2.16.98h-.08Z"/>
            <path class="cls-1" d="M176.99,128.58c-1.32,0-2.52-.84-2.99-2.08,0,0-.06-.16-.1-.27-1.57-4.52-10.1-27.32-23.45-31.67-9.8-3.24-23.13-10.39-38.56-20.69-.42-.28-.69-.46-.79-.53l-.09-.05-.1-.07c-.63-.49-1.06-1.18-1.21-1.94-.17-.85.02-1.71.53-2.4.57-.81,1.5-1.29,2.48-1.29.65,0,1.28.2,1.81.59l.05.03c.87.61,22.22,15.35,37.79,20.46,17.83,5.85,27.15,34.7,27.54,35.93.46,1.59-.35,3.22-1.83,3.79-.46.19-.86.19-1.08.19Z"/>
            <path class="cls-1" d="M102.21,113.91c-1.03,0-1.92-.45-2.52-1.28-.13-.14-1.08-.98-1.92-1.72-.6-.53-1.27-1.12-1.96-1.74l-.08-.07c-7.24-6.47-22.3-19.92-28.43-29.94-3.44-6.05-4.27-11.35-2.56-16.25,2.16-6.55,8.65-12.05,19.81-16.79l3.13-1.27,1.72-.71c16.81-6.97,39.83-16.51,52.86-19.94,11.53-3.14,15.5-4.56,16.29-4.85l.07-.05c3.42-2.29,12.27-8.11,20.67-12.57,10.73-5.93,16.2-6.75,20.51-6.75,3.72.09,7.87,1.72,8.32,5.07.18,1.82-.58,4.12-5.16,5.15-2.65.63-6.84,2.81-11.75,6.11-.09.06-.27.18-.27.18-.56.38-1.19.58-1.82.58-.96,0-1.85-.46-2.46-1.27-.49-.61-.7-1.38-.6-2.16.11-.85.58-1.63,1.3-2.16h0c1.03-.82,4.18-2.96,7.74-4.76-2.92.71-6.91,2.24-12.79,5.43-5.65,3.05-12.37,7.12-19.97,12.1-.51.34-.81.53-.86.55l-.03-.06c-1.65.93-6.04,2.27-17.68,5.41-12.74,3.39-36.87,13.41-52.84,20.04l-.97.4-2.95,1.28c-9.36,3.89-14.89,8.26-16.44,13.02-1.11,3.14-.44,6.71,2.03,10.96,5.37,8.91,19.04,21.21,26.39,27.82l.93.84c3.55,3.11,4.45,3.91,4.88,4.7.84,1.35.54,3.13-.72,4.1l-.13.1-.15.08c-.5.26-1.06.39-1.6.39Z"/>
            <path class="cls-1" d="M189.93,21.66c-1.66,0-2.96-1.21-3.11-2.88v-.08s0-.08,0-.08c0-1.67,1.24-2.99,2.96-3.14.05,0,.8-.08,4.14-.72,1.13-.2,3.78-.71,6.75-1.54-1.38-.07-2.86-.12-4.38-.16h0c-1.67,0-3.06-1.39-3.06-3.11s1.46-3.05,3.18-3.05c14.83.2,16.79,2,17.62,3.99l.1.23.05.29c.19,1.61-.56,3.04-2.12,4.02-6.2,3.51-15.87,5.24-16.95,5.43-2.3.46-4.44.8-5.15.8Z"/>
            <path class="cls-1" d="M189.53,29.42c-1.62,0-2.95-1.31-3.04-2.95-.09-.75.14-1.52.64-2.13.57-.69,1.4-1.11,2.24-1.14.95-.09,7-1.25,12.24-2.3-1.92-.33-3.54-.55-4.05-.57h-.09s-.09-.01-.09-.01c-1.67-.22-2.88-1.54-2.88-3.15s1.43-3.11,3.12-3.11c.16,0,16.67,1.19,17.57,6.45.38,2.58-1.79,4.19-3.96,4.61l-.14.03c-3.74,1.05-20.76,4.27-21.54,4.27Z"/>
            <path class="cls-1" d="M99.37,79.06c-1.25,0-2.51-.91-2.89-2.08-.28-.82-.23-1.68.14-2.42.37-.72,1.01-1.25,1.81-1.51,1.78-.73,5.32-3.23,8.79-5.72l1.07-.76c7.25-5.13,18.21-12.88,32.63-18.99,15.64-6.65,22.43-8.02,27.82-8.02,1.4,0,2.68.09,3.92.18,1.07.07,2.1.13,3.29.13h.19c6.17,0,9.38-2.84,13.09-6.14l.61-.53c2.15-1.98,5.68-2.95,9.28-3.63-1.25-.25-2.71-.52-4.39-.8-.42-.06-.77-.14-1.01-.19h-.07s-.24-.01-.24-.01l-.35-.16c-1.44-.64-2.18-2.29-1.72-3.8.29-1.3,1.46-2.22,2.83-2.22.23,0,.45.03.67.08.1.01.21.03.33.05.12.02.27.05.44.06h.09s.09.02.09.02c13.26,2.28,16.99,4.03,16.61,7.82v.08s-.02.08-.02.08c-.59,3.05-3.75,3.59-8.52,4.41l-.63.11c-3.27.56-7.75,1.33-9.34,2.72l-.69.6c-3.95,3.56-8.43,7.6-16.86,7.6h-.45c-1.32,0-2.53-.07-3.61-.13-1.13-.08-2.23-.16-3.39-.16-4.09,0-10.01.91-25.45,7.51-13.88,5.94-24.68,13.35-32.54,19.15l-1.59,1.11c-3.78,2.64-6.54,4.56-8.78,5.3-.46.2-.78.25-1.17.25Z"/>
            <path class="cls-1" d="M234.9,258.11c-.23,0-.44-.03-.69-.09-1-.16-4.41-1.11-3.96-6.65.11-1.71-1.13-3.23-2.18-4.2-4.95-4.56-16.69-7.02-25.23-7.02-1.78,0-3.36.1-4.68.31h-.09s-.25.03-.33.03c-1.19,0-2.18-.5-2.7-1.36-.54-.78-.65-1.88-.29-2.85,1.77-4.09,3.39-7.87,5-11.65,6.55-15.61,12.74-30.37,25.76-44.03,12.13-12.76,22.4-12.91,22.84-12.91,1.78,0,3.23,1.41,3.23,3.08s-1.29,3.06-2.94,3.14c-.13,0-8.68.45-18.62,10.97-12.02,12.61-17.76,26.11-24.41,41.73l-.18.43c-.91,2.18-1.89,4.5-2.95,6.87h.05c9.63,0,23.04,2.72,29.72,8.68,2.75,2.47,4.19,5.41,4.18,8.53,4.26-3.57,15.01-18.78,20.16-45.24,4.82-25.21-2.25-36.35-9.73-48.13l-.1-.16c-3.95-6.1-8.02-12.41-10.88-20.98-3.92,2.58-10.45,5.77-19.21,6.25-1.09.05-2.15.07-3.2.07-3.69,0-6.59-.29-9-.57l-.17-.02c-1.8-.19-3.35-.36-4.83-.36-2.76,0-5.1.6-8.08,2.08-.86.4-2.29,1.67-3.95,3.13l-1.03.9c-1.5,1.46-3.44,3.19-5.53,4.94-1.2,1-2.41,1.5-3.6,1.5-.79,0-1.54-.23-2.16-.66-1.35-.83-4.7-2.92.25-24.96.22-1.34,1.44-2.39,2.89-2.39.27,0,.54.04.81.12.76.16,1.41.59,1.86,1.22.48.67.67,1.53.53,2.34-1.65,7.2-2.43,13.06-2.63,16.37.22-.19.43-.37.63-.55,1.05-.92,2.01-1.76,2.89-2.51,2.86-2.59,4.72-4.23,6.38-4.99,3.68-1.87,7.02-2.71,10.75-2.71,1.89,0,3.72.21,5.65.42,2.59.26,5.19.5,8.45.5.86,0,1.76-.02,2.72-.05,10.13-.46,16.69-5.32,19.04-7.38.03-.02.05-.04.08-.07.56-.6,1.34-.94,2.15-.94.29,0,.57.04.86.12l.1.03.09.04c1.08.46,1.8,1.28,1.98,2.27,2.57,9.93,7.25,17.15,11.38,23.53l.1.16c8.19,12.84,15.92,24.96,10.57,52.62-6.05,31.65-20.22,51.08-27.71,51.08Z"/>
            <path class="cls-1" d="M177.39,128.9c-.91,0-2.1-.49-2.64-1.56-.38-.66-.5-1.43-.32-2.17.19-.8.72-1.5,1.44-1.93,2.87-1.7,5.13-3.66,6.04-4.78-3.17-2.08-5.12-4.75-5.83-7.98-1.44-7.55,4.95-15.94,11.71-24.83l.25-.33c7.33-9.43,15.63-20.11,11.36-27.6-3.57-6.41-1.96-10.57,0-12.93,3.71-4.44,11.36-5.1,15.58-5.1,4.61,0,9.3.74,12.87,2.04,16.28,5.84,26.29,22.75,25.49,43.08-.74,19.32-11.29,34.55-26.87,38.79l-.09.02-.09.02c-.21.03-.41.05-.6.05-1.44,0-2.62-.86-3.03-2.2-.26-.72-.21-1.53.14-2.24.4-.81,1.13-1.41,2-1.65,12.99-3.5,21.78-16.45,22.39-32.99.54-13.32-4.76-31.01-21.5-37.07-2.91-1.05-6.96-1.68-10.83-1.68-5.15,0-9.14,1.1-10.68,2.94-1.14,1.26-.92,3.2.62,5.8,6.25,11.06-2.93,23-11.82,34.55l-.43.56c-5.51,7.29-11.21,14.82-10.35,19.59.24,1.53,1.43,2.96,3.52,4.27,1.71,1.01,2.67,2.62,2.67,4.52,0,5.05-8.13,9.77-9.35,10.45-.57.35-1.18.35-1.64.35Z"/>
            <path class="cls-1" d="M220.7,118.2c-1.53,0-2.89-1.27-2.99-2.76-.1-.75.08-1.5.51-2.13.48-.7,1.24-1.18,2.08-1.33l.12-.02c2.81-.3,10.48-10.19,11.18-18.2.35-3.71-1.21-4.21-1.96-4.44-1.15-.35-2.23-.53-3.21-.53-1.42,0-2.61.37-3.66,1.12-1.61,1.07-2.54,2.65-3.05,3.85-.69,3.41-1.43,4.67-3,5.11l-.12.03-.13.02c-.15.02-.3.03-.45.03-1.11,0-2.12-.55-2.7-1.48-1.04-1.54-.2-4.01.49-5.5l.12-.81c.34-2.32.84-5.83,1.33-10.86.44-5.65-3.91-9.09-5.31-10.04-1.2-.63-1.82-2.01-1.49-3.37.3-1.29,1.45-2.27,2.8-2.35,2.56-.29,4.78-1.19,5.12-1.81.05-.09.12-.23-.14-.73l-.06-.12c-.78-1.79-4.36-2.9-9.33-2.9-1.47,0-2.56.1-3.08.16-.12.02-.27.02-.41.02-1.62,0-2.89-1.19-3.04-2.83-.08-.86.22-1.76.81-2.39.51-.56,1.2-.89,1.95-.93.49-.06,1.91-.2,3.78-.2,7.83,0,13.17,2.36,15.04,6.65.94,2.18.9,4.35-.11,6.29-.92,1.6-2.43,2.68-3.98,3.4,2.05,2.6,4.09,6.56,3.53,11.7-.07,1.05-.15,2-.22,2.86,1.46-.67,3.25-1.15,5.39-1.15,1.61,0,3.31.27,5.07.81,4.42,1.39,6.72,5.36,6.31,10.91-.85,9.18-9.64,23.05-16.71,23.88h-.1s-.09.03-.09.03l-.28.02Z"/>
            <path class="cls-1" d="M137.62,141.41c-1.48,0-2.71-1.04-3-2.53l-.02-.15c-.09-.83.16-1.68.7-2.34.48-.6,1.14-.98,1.87-1.07,6-1.05,10.55-4.65,13.51-10.7,4.82-9.97,3.86-24.36,1.12-29.49l-.05-.09-.04-.1c-.61-1.57,0-3.3,1.45-4.04.46-.22.9-.32,1.37-.32,1.01,0,1.99.49,2.68,1.35l.12.14.09.17c3.38,6.53,4.88,22.8-1.27,35.16-3.7,7.67-9.82,12.48-17.69,13.9-.23.08-.51.13-.82.13Z"/>
            <path class="cls-1" d="M95.16,117.2c-1.07,0-2.04-.56-2.68-1.53-1.31-2.02-.48-9.61,1.27-11.77.61-.73,1.48-1.13,2.39-1.13.74,0,1.44.26,1.99.74,1.27.99,1.51,2.83.53,4.24l-.03.04c-.13.3-.29,1.07-.43,2.01,7.97-3.57,13.94-12.6,16.79-19.78,2.87-6.82,2.89-11.78,2-13.14-.91-1.41-.51-3.33.86-4.3.54-.34,1.1-.5,1.68-.5,1,0,1.97.47,2.58,1.25l.05.06.04.06c3.43,5.23.19,14.93-1.37,18.86-2.07,5.03-9.95,21.61-24.97,24.77l-.11.02c-.16.04-.35.08-.59.08Z"/>
            <path class="cls-1" d="M185.65,30.65c-1.56,0-2.89-1.24-3.02-2.83-.22-2.29-1.37-4.03-3.52-5.32-2.16-1.37-5.28-2.17-8.4-2.17-1.33,0-2.52.16-3.18.42-.36.16-.8.26-1.25.26-1.18,0-2.26-.68-2.81-1.78l-.04-.07-.03-.08c-.31-.8-.29-1.7.06-2.47.34-.75.96-1.31,1.74-1.59,1.34-.55,3.36-.86,5.6-.86,4.25,0,8.48,1.12,11.61,3.07,3.74,2.27,6.02,5.84,6.41,10.06v.08s0,.09,0,.09c0,1.64-1.24,3.01-2.87,3.17h-.09s-.22,0-.22,0Z"/>
            <path class="cls-1" d="M169.49,248.93c-1.39,0-2.68-1.02-2.99-2.37-.2-.74-.09-1.56.33-2.26.43-.72,1.15-1.24,1.99-1.44,17.3-4.41,28.37-28.88,33.44-43.07,7.31-20.49,10.58-42.86,9.53-52.66-.18-1.59.89-3.03,2.54-3.42l.17-.04h.3c1.57-.01,2.94,1.22,3.12,2.8,2.43,21.9-13.38,93.54-47.48,102.31-.4.16-.77.16-.94.16Z"/>
            <path class="cls-1" d="M187.21,321.53c-17.39,0-40.29-1.37-52.4-5.23-.83-.27-1.51-.85-1.88-1.61-.36-.74-.4-1.58-.11-2.37.51-1.3,1.6-2.08,2.85-2.08.35,0,.7.06,1.06.18,9.34,2.97,29.25,4.9,50.71,4.9,13.44,0,25.07-.79,31.92-2.17.24-.06.49-.1.74-.1,1.36,0,2.57.99,2.94,2.4l.02.11c.33,1.65-.72,3.21-2.44,3.64-7.19,1.48-19.34,2.32-33.4,2.32Z"/>
        </g>
    </g>
</svg>
