<svg id="Layer_2" xmlns="http://www.w3.org/2000/svg" viewBox="0 0 429.56 682.33">
    <defs>
        <style>
            .cls-1 {
                fill: #fff;
            }
        </style>
    </defs>
    <g id="Layer_1-2" data-name="Layer_1">
        <g>
            <path class="cls-1" d="M16.98,227.08h-.07c-1.97-.17-4.83-1.81-9.58-13.16l-.04-.1c-.12-.34-.24-.65-.35-.94-.1-.25-.19-.49-.27-.72-.18-.39-.26-.77-.26-1.16,0-.94.41-1.78,1.09-2.32.26-.24.58-.41.93-.49.34-.14.69-.2,1.04-.2.15,0,.57.02,1.03.21.17.04.33.11.49.19h1.18l.02,1.29h.01s.17.43.17.43c.6,1.51,1.21,2.94,1.8,4.25.33.6.63,1.22.92,1.82l.25.51c1.25,2.39,2.13,3.66,2.59,4.22,4.69-1.29,29.52-13.04,39.19-20.33,5.41-4.09,11.52-11.12,17.69-20.31.3-.53.58-.89.75-1.09.54-.85,1.47-1.36,2.49-1.36.59,0,1.16.18,1.65.51,1.18.84,1.66,2.23,1.27,3.47v.26l-.24.32c-.07.12-.17.3-.35.56-.25.35-.59.86-1.02,1.51l-.9,1.35c-3.37,4.88-10.12,13.91-17.65,19.66-8.63,6.47-38.32,21.63-43.51,21.63h-.31Z"/>
            <path class="cls-1" d="M21.23,240.72c-.87,0-1.45-.33-1.85-.67-.2-.12-.37-.28-.51-.47l-3.62-3.39c-.6-.6-.93-1.4-.93-2.25l.06-2.62-11.6-14.61c-.51-.59-.77-1.33-.71-2.11.06-.82.46-1.6,1.1-2.13l3.58-3.18,1.21-1.05h.24c.08-.03.15-.05.23-.07.34-.14.69-.2,1.04-.2.15,0,.57.02,1.03.21.07.02.14.04.21.07h.27l.14.12h1.05l.03,1.29.14.12.12.61c.21,1.04-.14,2.12-.92,2.87l-1.41,1.28-.78.66,10.44,13.18c.47.52.75,1.24.75,1.95l-.09,2.38,1.53,1.42,13.94-4.71c5.86-3.12,20.81-11.08,22.48-12.22,1.23-1.26,4.1-3.44,12.73-9.65.07-.06.13-.11.19-.14l.14-.17,6.26-6.87c.15-.25.32-.42.45-.53l.24-.29,2.1-2.3,5.57-6.22.43-.42c.59-.58,1.37-.9,2.17-.9.18,0,.36.02.54.05.66.12,1.19.38,1.58.78,1.18,1.07,1.27,3.01.15,4.28l-.09.1-.33.32-.58.7-6.37,7.02-.53.57-1.09,1.29-.28.2-5.52,6.07-.7.8-.09.08c-.38.33-.98.82-1.65,1.26-4.24,3.06-8.32,6.1-10.09,7.5-.48.35-.75.6-.89.74l-.99.92-.12-.07c-.13.08-.26.17-.4.25-2.27,1.54-7.06,4.09-18.5,10.17l-2.75,1.46c-.36.17-.62.32-.88.47-.2.11-.4.23-.61.34l-.15.08-1.17.37-12.58,4.29-2.21.72c-.27.14-.64.27-1.1.27Z"/>
            <path class="cls-1" d="M77.23,183.38c-.49,0-.95-.11-1.35-.32-.27-.12-.5-.28-.69-.49-.55-.36-.92-.87-1.26-1.34l-.33-.46c-.44-.56-.84-1.14-1.26-1.79-.44-.66-1.03-1.6-1.7-2.67-.78-1.25-.54-2.93.57-3.91l.66-.55,1.92-1.64,2.56-2.24.05-.04c.51-.38,1.17-.59,1.86-.59.14,0,.29,0,.43.03.77.07,1.57.5,2.07,1.14l.08.11,3.26,4.9.04.07c.52.97.51,2.14,0,3.02l-.38.77-1.57,2.79-.93,1.64c-.29.51-.68.84-1,1.07l-.3.22-.37.08c-.13.03-.28.07-.44.09-.2.05-.41.07-.62.07h0c-.18,0-.36-.02-.53-.05-.22.06-.47.1-.75.1ZM77.58,175.83l.31-.57-.23-.35-.43.37c.12.19.24.37.36.55Z"/>
            <path class="cls-1" d="M91.31,216.43c-.81,0-1.57-.3-2.13-.83l-10.94-11.77c-.55-.53-.88-1.37-.84-2.24.04-.81.4-1.56,1.01-2.08.55-.51,1.27-.79,2.02-.79.88,0,1.72.39,2.29,1.06l5.71,6.09c-.13-6.51-.92-9.24-1.43-10.33-1.92-4.17-6.5-12.79-8.22-16.03-.42-.79-.62-1.18-.73-1.39-.4-.68-.5-1.47-.3-2.24.21-.81.76-1.5,1.5-1.91.45-.24.95-.37,1.44-.37,1.08,0,2.08.56,2.65,1.51l.24.43c4.33,8.04,7.49,14.24,8.89,17.46,2.32,4.8,2.19,14.85,1.91,20.4v.18c-.13,1.31-.92,2.31-2.05,2.68-.43.18-.83.18-1.02.18Z"/>
            <path class="cls-1" d="M78.4,258.23c-1.36,0-2.21-.93-3.35-2.36-1.69-2.22-4.84-6.86-11.26-16.59l-.19-.29c-.32-.48-.64-.95-.95-1.46-.14-.22-.25-.5-.34-.81l-.05-.14-3.72-15.11-.39-1.48c-.42-1.56.51-3.2,2.12-3.73l.11-.04.11-.02c.19-.04.38-.05.58-.05,1.43,0,2.66.96,2.98,2.29l.13.4,3.7,15.09.23.75c.17.29.38.6.64.93l.05.06.04.07c2.79,4.31,6.68,10.19,9.26,13.95.02-.03.08-.12.09-.14v-.42l.55-.37c2.71-4.11,5.7-8.9,7.71-13.6,2.39-5.57,2.33-14.03,2.08-18.58-.02-.84-.09-1.56-.13-2.08l-.03-.31c-.04-.49-.08-.75-.08-.76v-.11s-.01-.11-.01-.11c0-.18,0-.4.06-.68.17-1.1.92-2,1.99-2.37l.12-.04h.07c.13-.05.29-.08.49-.1.11-.01.21-.02.31-.02,1.46,0,2.7,1.02,3,2.49l.04.18v.25c.02.31.07.91.15,1.76.46,5.39.75,15.51-2.47,22.89-1.79,4.28-4.34,8.53-6.83,12.48-.68,1.02-1.28,1.92-1.82,2.77-.11.2-.24.37-.37.55-.05.07-.1.13-.15.21-.23.41-.56.9-.86,1.35-.17.25-.32.48-.45.68-.12.19-.21.33-.29.44l-.02.04c-.35,1.01-1.15,1.76-2.13,1.99-.23.09-.47.14-.71.14Z"/>
            <path class="cls-1" d="M66.73,238.62c-1.04,0-1.99-.51-2.54-1.38-.93-1.3-.62-3.12.76-4.16l.47-.35h.1c1.29-.84,5.8-3.95,10.02-7.48,4.91-4.11,13.39-13.75,13.47-13.85.6-.67,1.44-1.04,2.33-1.04.72,0,1.41.24,1.95.68l.09.07.08.08c1.15,1.21,1.19,3.06.1,4.24-.92,1.08-8.98,10.16-14.13,14.5-4.34,3.64-9.54,7.24-10.98,8.15h0c-.63.48-1.42.53-1.73.53Z"/>
            <path class="cls-1" d="M78.84,257.23c-1.63,0-2.97-1.27-3.05-2.9l-.79-29-4.55-14.91c-.26-.77-.17-1.65.24-2.38.38-.67,1.02-1.16,1.77-1.36.32-.11.64-.17.98-.17,1.25,0,2.38.84,2.82,2.09l4.64,15.2c.14.32.21.64.21.99l.76,29.32c.05.76-.24,1.58-.8,2.18-.56.6-1.35.94-2.18.94h-.04Z"/>
            <path class="cls-1" d="M80.23,205.26h-.11c-.84-.12-1.58-.53-2.08-1.17-.48-.62-.69-1.39-.59-2.17.52-6.99-2.13-16.98-2.7-18.79l-.02-.03-.07-.22c-.47-1.58.41-3.26,1.97-3.76.33-.11.67-.17,1.01-.17,1.35,0,2.54.92,2.89,2.23.62,2.1,3.63,12.9,2.92,21.3-.11,1.55-1.42,2.78-2.98,2.78h-.24Z"/>
            <path class="cls-1" d="M12.77,219.57c-1.15,0-2.29-.74-2.78-1.79l-.04-.09-.03-.09c-.52-1.56.12-3.15,1.56-3.88l.12-.06.12-.04s-.01,0-.01,0c0,0,.02-.01.05-.03l.06-.04.07-.03c1.58-.71,38.96-17.68,60.77-36.81l.12-.11.07-.04.1-.12.17-.14c.56-.44,1.26-.68,1.96-.68.88,0,1.69.38,2.24,1.04.55.6.83,1.36.79,2.16s-.41,1.55-1.01,2.1v.03l-.6.57c-22.65,19.67-60.41,36.8-62.01,37.52-.18.08-.34.15-.48.21-.38.2-.83.32-1.24.32Z"/>
            <path class="cls-1" d="M9.13,213.17c-1.1,0-1.93-.68-2.16-.88l-.57-.52v-.26s-.04-.08-.06-.12c-.13-.24-.27-.57-.3-1.01-.08-.27-.36-.91-.54-1.34l-.12-.29c-8.09-18.7-7.04-34.32,3.13-46.43,7.12-8.56,17.13-13.27,28.19-13.27.65,0,1.3.02,1.96.05,14.38.62,28.47,8.62,37.7,21.41l.14.18c.16.21.33.43.51.68.95,1.27.64,3.22-.68,4.22l-.1.08-.12.06c-.48.26-1.02.4-1.56.4-.95,0-1.85-.43-2.46-1.19-.2-.26-.4-.55-.55-.79-8.16-11.33-20.55-18.41-33.16-18.94-.45-.02-.91-.03-1.37-.03-9.59,0-17.85,3.83-23.88,11.07-12.86,15.35-5.06,33.38-2.13,40.17.83,1.96,1.17,2.76,1.17,3.68v.13c-.1,1.68-1.4,2.95-3.03,2.95Z"/>
            <path class="cls-1" d="M33.19,253.17c-.3,0-.52-.03-.66-.05-1.4-.08-2.54-1.13-2.75-2.54l-.52-3.12-9.85-7.38c-.62-.45-1.07-1.18-1.19-1.98-.12-.81.09-1.63.59-2.28.52-.75,1.41-1.22,2.4-1.22.64,0,1.27.2,1.8.58l10.88,8.13c.65.45,1.11,1.22,1.2,2.06l.25,1.58c2.12-.2,5.01-.66,8.52-1.64,5.82-1.51,17.09-9.19,19.8-11.17l.09-.06c.51-.33,1.1-.51,1.71-.51.99,0,1.92.47,2.48,1.26.47.63.67,1.43.54,2.25-.12.81-.55,1.52-1.21,2l-.09.06c-3.32,2.36-14.69,10.2-21.75,12.07-6.69,1.82-11.07,1.96-12.25,1.96Z"/>
            <path class="cls-1" d="M64.33,265.69c-.77,0-1.5-.29-2.17-.87l-.12-.1-13.52-16.52-13.32-13.31c-1.18-1.19-1.2-3.03-.05-4.27.64-.63,1.4-.95,2.2-.95s1.56.32,2.14.89l13.58,13.57,12.04,14.69,10.92-5.83c.51-.24.96-.34,1.43-.34,1.12,0,2.16.61,2.71,1.59l.04.07.03.08c.64,1.47.09,3.18-1.28,3.99l-13.25,7c-.43.26-1,.32-1.4.32Z"/>
            <path class="cls-1" d="M60.57,265.61c-4.59,0-10.97-.46-15.3-2.64-6.21-2.91-10.61-9.12-11.8-10.95l-.08-.12c-.43-.7-.56-1.56-.36-2.36.2-.79.7-1.44,1.41-1.84.42-.27.98-.43,1.56-.43,1.05,0,2.02.54,2.58,1.44l.02.03c.23.36,4.11,6.32,9.29,8.71,2.68,1.34,7.22,2.07,12.82,2.07.85,0,2.15-.02,3.56-.1,0,0,.23-.01.3-.01,1.63,0,2.93,1.22,3.03,2.83.14,1.64-1.08,3.08-2.77,3.23h-.08s-.08,0-.08,0h-.25c-.66.05-2.02.13-3.86.13Z"/>
            <path class="cls-1" d="M149.48,223.33c-1.12,0-2.21-.69-2.71-1.71-5.62-10.81,2.74-25.9,7.27-32.77-.34-.07-1.65-.34-1.65-.34-9.76-2.06-23.06-4.88-34.8-4.88-13.29,0-21.56,3.49-25.3,10.66-.57,1-1.59,1.59-2.69,1.59-.48,0-.95-.12-1.37-.33-.7-.32-1.24-.9-1.51-1.63-.29-.79-.24-1.68.14-2.45,4.86-9.25,15.21-13.92,30.81-13.92,12.41,0,26.02,2.88,35.96,4.98.67.14,1.34.28,1.99.42,1.47.31,2.87.6,4.14.83l.11.02.1.03c.97.3,1.69.95,2.07,1.86.37.9.24,2-.35,2.87l-.08.1c-.14.19-14.89,19.67-9.45,30.17.39.68.49,1.51.28,2.27s-.74,1.42-1.43,1.81c-.46.28-.97.43-1.53.43Z"/>
            <path class="cls-1" d="M160.18,224.69c-21.25,0-30.41-9.68-37.14-20.15-.44-.69-.58-1.5-.4-2.3.18-.79.65-1.46,1.32-1.89.52-.32,1.09-.48,1.66-.48,1.05,0,2,.54,2.55,1.44,6.9,10.67,14.67,17.31,31.94,17.31,1.81,0,3.74-.08,5.74-.22h.22c1.57,0,2.91,1.21,3.01,2.72.09.81-.14,1.6-.65,2.22-.52.64-1.3,1.05-2.13,1.11-2.45.16-4.38.23-6.11.23Z"/>
            <path class="cls-1" d="M206.22,194.08c-14.71,0-30.03-1.4-48.19-4.41-.85-.15-1.55-.6-2.01-1.27-.45-.66-.62-1.46-.47-2.25.29-1.44,1.57-2.5,2.98-2.5.17,0,.34.01.51.05,18,2.93,33,4.29,47.2,4.29,3.34,0,6.72-.08,10.06-.23.1,0,.19-.01.29-.01,1.57,0,2.89,1.27,2.99,2.88v.12c0,1.64-1.29,2.99-2.94,3.09-3.57.17-6.97.26-10.41.26Z"/>
            <path class="cls-1" d="M81.17,253.68c-.69,0-1.6-.19-2.41-1.11-.47-.58-.7-1.27-.7-1.94,0-.35.06-.63.14-.86v-.61l.57-.38c.57-.71,1.43-1.13,2.4-1.13h.18c.35,0,1.08-.03,2.02-.23,3.17-.6,8.83-2.71,11.61-10.17,2.86-7.79-1.11-16.83-3.73-21.53-.06-.12-.12-.2-.17-.27-.09-.14-.18-.28-.26-.42l-.22-.39v-.03c-.23-.38-.44-.73-.63-1.02-.1-.16-.19-.31-.28-.44-.09-.12-.15-.2-.22-.3l-.08-.07-.14-.21c-.47-.67-.64-1.54-.48-2.36.16-.8.62-1.5,1.27-1.92.51-.34,1.12-.52,1.76-.52.72,0,1.4.24,1.94.68l.17.06.34.46c.48.66,11.65,16.33,6.42,30.43-4.52,12.26-15.41,14.03-18.63,14.28h-.07s-.79,0-.79,0Z"/>
            <path class="cls-1" d="M134.1,411.57c-1.73,0-3.08-1.33-3.08-3.02,0-.31-.23-31.23-15.37-57.91-10.73-18.87-24.09-28.37-35.89-36.75l-.55-.39c-5.04-3.59-9.81-6.97-14.08-10.9-14.38-12.95-14.99-34.73-14.97-38.97v-.17c.11-1.65,1.42-2.9,3.06-2.9s3.06,1.4,3.06,3.05c0,.95-.06,22.72,12.93,34.47,4.16,3.81,8.77,7.11,13.94,10.71,12.33,8.76,26.3,18.69,37.8,38.85,15.98,28.08,16.16,60.58,16.16,60.9,0,1.7-1.33,3.02-3.02,3.02Z"/>
            <path class="cls-1" d="M237.5,322.26c-.15,0-.54,0-.97-.17-14.59-4.87-24.79-23.45-34.66-41.41l-.8-1.44c-5.03-9.1-9.79-17.7-14.7-23.21-.57-.57-.88-1.36-.84-2.19.04-.83.42-1.59,1.04-2.12.54-.5,1.27-.79,2.04-.79.84,0,1.65.35,2.23.95,5.51,6.23,10.57,15.38,15.93,25.07l.46.83c8.39,15.34,18.82,34.43,31.28,38.51l.11.04c.78.32,1.41.94,1.72,1.7.29.7.3,1.46.03,2.16-.4,1.23-1.57,2.08-2.88,2.08Z"/>
            <path class="cls-1" d="M83.8,302.98c-4.39,0-8.4-.68-10.12-1.64v.03c-1.2-.56-1.96-1.54-2.1-2.68-.18-1.65.94-3.14,2.54-3.41l.14-.02h.15c.9,0,1.64.25,2.2.74.75.25,3.02.88,7.13.88,8.65,0,24.29-2.68,49.64-15.46,36.19-18.21,77.44-56.99,90.57-69.81-1.61-3.71-5.67-13.5-6.59-20.27l-.02-.23c-.07-.65-.13-1.27-.13-1.88,0-.4,0-.69.03-1.04.37-9.51,11.49-13.99,15.14-15.46,4.12-1.57,9.07-2.58,11.92-3.03l.35-1.36c.26-1.37,1.4-2.36,2.75-2.39.63-.04,6.72-.42,13.94-.42,2.2,0,4.3.04,6.26.11h.26c.91,0,1.89,0,2.87.12,1.85.1,3.66.21,5.42.49,2.18.22,4.68.68,7.55,1.4,1.17.31,2.06.58,2.92.86,3.59,1.13,15.38,5.35,15.97,11.88.29,2.03-.35,4-1.8,5.47-1.77,1.8-4.54,2.72-8.44,2.84-.49.04-.99.06-1.51.06s-1.04-.02-1.62-.06c-.61,0-1.3-.04-1.93-.1-5.65-.44-10.17-1.54-11.88-1.95l-.79-.19-.06-.02c-1.61-.52-2.48-2.17-2.01-3.78.19-.75.68-1.36,1.37-1.73.44-.3.97-.47,1.52-.47.3,0,.59.05.88.14.06.01.12.03.19.05,4.63,1.14,8.74,1.65,11.37,1.88,1.12.09,2.17.14,3.11.14,4.16,0,5.28-.9,5.46-1.08.07-.07.17-.17.16-.6-.41-1.94-9.57-7.34-21.28-8.74-3.56-.42-7.97-.63-13.09-.63-.58,0-1.16,0-1.73,0-.5,0-.98.01-1.45.02-.46.01-.89.02-1.3.02-3.16.07-5.94.19-7.75.27l-.27,1.29-.06.18-.07.17c-.49,1.07-1.35,1.74-2.38,1.88-.09.02-.21.04-.35.06-.33.05-.88.14-1.59.28-1.97.29-6.8,1.11-10.64,2.67-.27.11-.53.2-.79.29l-.25.09-.1.04c-.81.36-1.66.73-2.42,1.16l-.09.05c-3.55,1.73-7.74,4.64-7.76,8.69l.28.91-.21.19c.47,4.79,3.61,13.36,6.48,19.97l.26.58c.13.29.23.5.29.68.51,1.09.28,2.39-.62,3.35l-.52.56h-.02c-.05.06-.22.25-.22.25l-1.16,1.11c-2.12,2.05-6.08,5.86-11.32,10.64-.46.46-.98.94-1.53,1.45l-.4.37c-16.79,15.38-49.29,43.35-78.42,58.04-26.49,13.32-43.09,16.12-52.35,16.12Z"/>
            <path class="cls-1" d="M285.76,198.56c-4.39,0-9.28-1.6-11.17-2.29-.72-.23-1.36-.77-1.73-1.51-.37-.74-.43-1.57-.16-2.36.51-1.27,1.63-2.04,2.88-2.04.37,0,.73.07,1.08.19,3.18,1.14,6.82,1.88,9.24,1.88,1.84,0,2.27-.41,2.27-.42,1.09-2.05.09-3.56-.24-3.96l-.07-.04-.21-.26c-1-1.25-.88-3.1.27-4.21.59-.55,1.33-.84,2.11-.84s1.57.31,2.14.88c1.78,1.93,3.99,6.42,1.33,11.38-.96,1.66-3.05,3.59-7.74,3.59Z"/>
            <path class="cls-1" d="M281.54,206.34c-4.74,0-12.1-2.69-13.53-3.23-1.57-.58-2.38-2.27-1.82-3.84.48-1.26,1.62-2.05,2.93-2.05.32,0,.64.05.95.14l.11.04c4.4,1.66,9.31,2.92,11.41,2.92.06,0,.11,0,.16,0,.15-.76,0-2.53-.46-4.02-.26-.72-.21-1.51.13-2.22.37-.77,1.04-1.37,1.85-1.64.27-.1.59-.15.91-.15,1.33,0,2.52.91,2.9,2.22.44,1.39,2.44,8.63-2.24,11.19l-.1.05c-.86.4-1.94.6-3.21.6Z"/>
            <path class="cls-1" d="M276.05,214.76c-.87,0-1.85,0-2.9-.15-5.1-.53-10.88-2.11-13.96-3.03-.16-.03-.29-.07-.4-.11l-.11-.04c-1.55-.51-3.3-.84-5.22-.98-1.27-.11-2.53-.16-3.86-.16l-.59-.02c-3.58-.15-7.28-.3-9.4-2.99h-.1l-.57-.91c-.12-.21-.23-.43-.33-.68-.17-.32-.27-.64-.38-.95l-.08-.23-.02-.12-.03-.11c-.06-.22-.14-.53-.16-.92-.07-.39-.07-.77-.07-1.08-.25-4.6,1.58-14.29,5.44-28.69l.18-.68c.15-.57.26-.98.31-1.22l.02-.09.03-.09c.4-1.26,1.62-2.15,2.97-2.15.25,0,.5.03.74.09.81.2,1.51.74,1.92,1.48.41.74.5,1.6.25,2.4-3.94,14.06-6.45,27.02-5.68,29.43.26.99,1.03,1.27,5.7,1.41h.02c.68,0,1.4.05,2.17.1.78.03,1.67.06,2.63.21,2.13.19,4.08.55,5.94,1.12.14.03.37.09.64.23.46.14.92.26,1.37.38.37.1.73.2,1.08.3,5.21,1.39,9.74,2.17,12.72,2.17,1.37,0,2.09-.16,2.46-.29.15-.52-.02-1.97-.5-3.24l-.11-.3v-.08s-.01-.04-.02-.06c-.26-.64-.29-1.34-.06-2,.27-.78.88-1.45,1.68-1.81.41-.18.81-.26,1.23-.26,1.21,0,2.35.74,2.82,1.83l.03.07.18.56c.08.26.17.53.28.86l.03.1c1.32,4.7.31,8.26-2.78,9.79l-.1.04c-1.36.57-3.12.86-5.22.86h-.18Z"/>
            <path class="cls-1" d="M253.16,210.1c-1.4,0-2.66-1.04-2.93-2.43l-.04-.22c-.06-.34-.13-.8-.16-1.36-.4-7.22,3.54-29.68,6.09-36.81.62-1.65,1.18-2.92,2.36-3.31.27-.11.64-.18,1.02-.18,1.3,0,2.46.85,2.84,2.07.25.71.21,1.52-.11,2.19l-.02.14-.05.15c-1.25,4.03-7.03,29.27-6.14,35.43l.02.03.1.38c.41,1.51-.44,3.15-1.91,3.71-.47.2-.88.2-1.09.2Z"/>
            <path class="cls-1" d="M261.2,211.57c-1.66,0-3.05-1.39-3.05-3.03,0-1.47,0-1.71,14.35-17.12l-3.75-16.03c-.38-1.61.62-3.25,2.25-3.64.22-.06.48-.09.74-.09,1.38,0,2.6.96,2.95,2.32l4.05,17.56c.26.9.08,1.85-.53,2.68l-.06.09-.07.08c-5.51,5.89-13.08,14.18-14.19,15.6-.5.97-1.52,1.59-2.67,1.59Z"/>
            <path class="cls-1" d="M239.32,206.97c-.78,0-1.52-.29-2.08-.83-12.24-12-8.44-29.94-8.41-30.12.32-1.43,1.55-2.42,2.98-2.42.19,0,.39.02.58.05,1.55.26,2.66,1.8,2.44,3.42l-.03.21-.02.05c-.22,1.26-2.4,15.54,6.69,24.42,1.16,1.13,1.23,3,.15,4.26l-.08.1-.1.08c-.58.5-1.33.78-2.13.78Z"/>
            <path class="cls-1" d="M227.58,215.78c-.98,0-1.83-.42-2.4-1.18-.96-1.26-.81-3.09.36-4.15l.09-.08.09-.07s.1-.09.25-.21c4.66-3.81,8.91-6.65,12.63-8.47.48-.21.89-.29,1.31-.29,1.14,0,2.19.63,2.74,1.64.75,1.56.13,3.37-1.34,4.1-5.28,2.58-10.92,7.22-11.69,7.86-.5.53-1.23.83-2.05.83Z"/>
            <path class="cls-1" d="M266.87,223.51c-2.7,0-5.9-.51-9.27-1.48-5.61-1.47-7.71-4.11-8.49-6.06-.79-1.89-.61-4.04.5-6.01,2.45-4.07,9.44-4.38,9.51-4.38h0c1.7,0,3.07,1.25,3.17,2.85v.11c0,1.67-1.22,3.01-2.84,3.12-2.17.1-4.24.9-4.54,1.37-.26.42-.19.59-.17.65.1.22.81,1.51,4.49,2.51,2.83.81,5.48,1.23,7.69,1.23,2.81,0,3.78-.68,4-.89,1.03-.94.73-2.97.73-2.99-.14-.79.03-1.61.51-2.29s1.18-1.13,1.99-1.27c.15-.03.32-.04.5-.04,1.44,0,2.75,1.05,3.04,2.44l.02.08v.09c.18,1.24.51,5.57-2.74,8.47-1.72,1.62-4.53,2.49-8.1,2.49Z"/>
            <path class="cls-1" d="M256.89,231.61c-5.67,0-11.86-2.79-16.61-5.21-5.65-2.82-10.42-9.19-8.22-13.8.71-1.49,2.36-3.28,6.19-3.28,3.19,0,7.4,1.21,12.87,3.7,1.58.83,2.21,2.55,1.55,4.04-.54,1.13-1.62,1.81-2.85,1.81-.36,0-.72-.06-1.06-.18l-.09-.03-.09-.04c-6.02-2.8-9.05-3.22-10.32-3.22-.24,0-.43.02-.58.04.37,1.19,2.17,3.95,5.33,5.55,5.82,3,10.49,4.52,13.9,4.52,1.39,0,2.59-.25,3.56-.76,4.01-1.93,5.95-4.66,6.45-5.45l.16-.25h.01c.56-.78,1.47-1.24,2.47-1.24.5,0,1,.12,1.43.36.77.42,1.32,1.12,1.51,1.93.18.75.06,1.53-.36,2.19-.68,1.31-3.41,5.25-8.93,7.9-1.87.94-4.01,1.42-6.33,1.42Z"/>
            <path class="cls-1" d="M248.27,237.42c-7.82,0-15.31-2.89-18.65-7.18-3.82-5.03-1.49-11.26,1.97-15.42l.08-.09c.6-.68,1.45-1.06,2.33-1.06.74,0,1.45.27,1.99.77.58.5.93,1.19,1.01,1.96.08.83-.18,1.67-.71,2.3l-.17.2h-.02c-.58.73-3.74,4.88-1.66,7.69,2.15,2.7,8.21,4.76,14.07,4.76.62,0,1.24-.02,1.84-.07,4.1-.37,9.61-1.89,12.39-7.01.54-.97,1.56-1.56,2.67-1.56.5,0,1.01.12,1.45.36,1.44.77,2,2.5,1.32,4.02l-.06.11c-3.16,5.88-9.3,9.48-17.29,10.12h-.26c-.77.05-1.53.09-2.31.09Z"/>
            <path class="cls-1" d="M244.17,244.3c-3.95,0-7.75-.8-11.01-2.31-7.58-3.52-7.91-11.43-7.02-15.11.32-1.38,1.53-2.36,2.94-2.36.23,0,.47.03.7.08.81.2,1.51.72,1.95,1.43.42.69.54,1.49.35,2.24l-.03.11c-.1.47-1.15,5.84,3.67,8.1,2.41,1.11,5.31,1.69,8.39,1.69,3.41,0,6.84-.75,9.66-2.1,2.77-1.36,6.32-3.94,7.48-8.49.25-1.39,1.5-2.39,3.02-2.39.17,0,.33.01.5.04l.14.03c1.63.39,2.61,2.02,2.23,3.71-1.33,5.44-5.13,9.9-10.71,12.59-3.75,1.79-7.98,2.74-12.24,2.74Z"/>
            <path class="cls-1" d="M231.22,240.59c-.17,0-.32-.02-.43-.05l-.19-.04c-3.54-.73-8.68-4.28-15.83-9.76-2.12-1.6-2.55-1.87-2.62-1.9-.77-.41-1.33-1.11-1.56-1.92-.2-.73-.12-1.48.22-2.14.48-1.06,1.54-1.73,2.73-1.73.41,0,.82.08,1.2.24l.08.03.07.04c.45.24,1.19.71,3.57,2.54,9.2,7.09,12.42,8.41,13.39,8.65.8.16,1.51.63,1.96,1.32.45.69.6,1.54.4,2.32-.29,1.36-1.56,2.39-3,2.39Z"/>
            <path class="cls-1" d="M268.5,171.22c-.28,0-1.01-.05-1.69-.48l-.1-.06-.09-.07c-1.28-1.07-1.56-2.83-.66-4.13l.49-.78h.13s9.32-13.08,9.32-13.08l-.4-6.6v-.05c0-.78.29-1.49.83-2.07.2-.25.8-.98,2.93-3.53,32.04-38.55,54.38-66.08,66.41-81.8,20.89-27.29,57.84-56.56,59.51-57.86.53-.45,1.2-.7,1.85-.7h.11l.2.02c.52.03,14.9,1.23,21.5,18.14l.18.45c.12.3.24.61.36.93l.07.19.02.2c.04.12.1.33.1.6,0,.45-.14.96-.42,1.56l-.12.25-.19.2c-.44.47-.91.78-1.44.93-.27.09-.59.14-.91.14-1.28,0-2.4-.8-2.85-2.03l-.04-.13-.17-.26-.06-.39c-.03-.22-.1-.38-.2-.54l-.11-.17-.07-.19c-.62-1.62-1.36-3.06-2.18-4.29-4.34-6.79-10.3-8.76-12.9-9.31-11.79,9.53-40.1,33.39-57.38,55.99-19.37,25.37-61.69,76.16-68.82,84.64l.37,6.39c.08.71-.12,1.43-.56,2.04l-9.96,13.89h-.01l-.52.77-.04.06c-.57.71-1.51,1.16-2.46,1.16Z"/>
            <path class="cls-1" d="M299.6,165.4c-.54,0-1.05-.14-1.53-.41l-.12-.07-.11-.08c-.16-.12-.29-.26-.41-.4l-.07-.07c-.9-.94-1.05-2.36-.37-3.5.16-.34.4-.66.73-1.12l.08-.1c3.97-5.04,21.42-24.08,47.61-52.57l.43-.46c28.98-31.52,72.32-78.67,77.34-86.3-2.12-1.84-8.61-4.8-15.5-7.1l-.11.13c-1.95,2.38-6.02,7.32-12.38,14.48-9.78,10.68-97.88,113.32-107.14,124.82-.17.21-.3.37-.4.51-.06.08-.12.16-.18.24-.46.95-1.42,1.53-2.56,1.53-.21,0-.43-.02-.64-.06h-.44l-.4-.22c-.75-.41-1.25-1.07-1.41-1.83-.09-.3-.18-.59-.18-.93v-.12c0-.51.12-.98.36-1.38.07-.14.18-.31.35-.5,5.35-7.11,100.38-117.67,108.11-126.14,8.11-9.08,12.46-14.51,13.34-15.65v-.04s.23-.27.23-.27c.59-.73,1.46-1.14,2.38-1.14.32,0,.64.05.95.15,2.92.89,10.31,3.29,15.57,6.3,1.81,1.01,4.27,2.67,5.59,4.74.57.85.88,1.79.88,2.68,0,.45-.14.96-.42,1.56-2.51,5.05-20.29,25.02-79.3,89.1l-.78.85c-22.36,24.38-45.47,49.59-46.81,51.84-.56.95-1.57,1.53-2.65,1.53Z"/>
            <path class="cls-1" d="M298.62,164.92c-.56,0-1.13-.17-1.65-.5l-.11-.08-2.54-1.89-2.03-1.42-8.86-6.5-.32-.22c-.45-.29-.7-.69-.83-.91l-.14-.22-.11-.31c-.1-.32-.2-.62-.2-.99v-.12c0-.51.12-.98.36-1.38.05-.09.11-.21.18-.32l.11-.17.24-.22c.57-.58,1.34-.91,2.16-.91.61,0,1.22.19,1.74.54l.1.07,1.03.8,9.1,6.55c.17.13.32.24.5.4l.24.21,2.65,1.94.18.12c.69.45,1.17,1.18,1.3,2.01.13.83-.1,1.69-.64,2.37-.51.7-1.41,1.14-2.36,1.14h-.1Z"/>
            <path class="cls-1" d="M284.27,173.21c-.83,0-1.62-.37-2.18-1.03-.92-.89-1.11-2.24-.55-3.37v-.42l.65-.47,9.84-9.54,1.07-1.18.06-.06c.59-.54,1.36-.83,2.16-.83.36,0,.72.06,1.06.17l.26.09.22.17c.15.11.3.23.48.38l.6.52v.3c.25.48.39,1.02.37,1.57-.03.8-.35,1.54-.93,2.07l-.87.77-9.2,9.03-.93.92-.05.05c-.3.25-1.01.85-2.06.85Z"/>
            <path class="cls-1" d="M107.9,259.88c-.56,0-1.08-.14-1.54-.41-1.46-.96-1.92-2.72-1.13-4.14.87-1.41,8.86-13.24,37.52-18.85.21-.04.4-.05.58-.05,1.47,0,2.73,1.03,3.01,2.44.29,1.71-.81,3.3-2.44,3.58-26.55,5.15-33.31,15.79-33.37,15.89-.6.97-1.57,1.53-2.62,1.53Z"/>
            <path class="cls-1" d="M140.33,246.27c-.23,0-.69-.03-1.12-.21-.72-.27-1.36-.89-1.68-1.66-.31-.74-.3-1.54,0-2.28,1.67-4.3,17.96-17.72,35-28.83,21.97-14.37,36.76-22.93,46.55-26.92l.1-.04c.35-.12.71-.18,1.07-.18,1.22,0,2.3.7,2.82,1.83l.04.1c.59,1.56-.18,3.32-1.73,3.94-9.46,3.84-23.93,12.2-45.53,26.31-19.12,12.55-31.73,24.06-32.67,25.99-.42,1.17-1.55,1.95-2.86,1.95Z"/>
            <path class="cls-1" d="M135.09,413.94c-1.42,0-2.71-1.08-3-2.51-.44-2.92,9.28-33.38,57.63-53.59,42.54-17.68,46.94-37.96,46.98-38.16.23-1.42,1.5-2.47,3-2.47.19,0,.39.02.58.05.76.13,1.48.59,1.95,1.27.45.66.62,1.45.47,2.22-.24,1.49-4.51,23.57-50.63,42.7-41.46,17.36-53.51,43.64-53.95,47.22.07.72-.12,1.43-.55,2.02-.47.64-1.17,1.06-1.98,1.19-.13.03-.3.06-.51.06Z"/>
            <path class="cls-1" d="M177.98,562.18c-.6,0-1.06-.18-1.47-.37l-.12-.06-.11-.07c-1.39-.93-1.79-2.71-.92-4.14,1.56-2.6,15.23-26.16,27.22-72.6,12.21-47.94,4.51-97.02,4.17-99l-.02-.06-.02-.17c-.21-1.62.89-3.15,2.5-3.47l.1-.02c.14-.02.27-.03.41-.03,1.45,0,2.72,1.04,3.01,2.47h0c.48,2.68,8.34,52.41-4.27,101.76-11.84,46.05-25.25,69.88-27.82,74.19l-.05.1-.07.09c-.59.87-1.52,1.37-2.54,1.37Z"/>
            <path class="cls-1" d="M129.64,552.94c-1.67-.11-2.92-1.52-2.84-3.21,0,0,.04-.7.1-1.92,1.84-33.79,2.32-51.15,2.4-59.76.11-21.82,6.85-75.7,7.23-78.57.16-1.54,1.45-2.7,3.02-2.7.13,0,.27,0,.4.03,1.69.23,2.84,1.71,2.62,3.38l-.05.41c-1.18,9.5-7.04,57.89-7.11,77.48-.14,12.51-.96,32.63-2.42,59.81-.07,1.25-.11,2-.11,2.13-.09,1.64-1.46,2.93-3.06,2.93h-.18Z"/>
            <path class="cls-1" d="M296.53,442.13c-1.36,0-2.56-.9-2.98-2.23l-.05-.17v-.07c-.46-1.77-11.52-43.07-26.57-73.87-13.8-28.12-26.58-38.38-29-40.15l-.07-.05c-1.32-.92-1.71-2.7-.87-4.09.63-.95,1.59-1.46,2.62-1.46.63,0,1.23.2,1.74.58.54.35,15.24,10.25,31.05,42.52,15.68,32.14,27.01,74.94,27.08,75.27.18.75.03,1.61-.41,2.29-.38.59-.94,1.02-1.61,1.23-.33.15-.67.21-.93.21Z"/>
            <path class="cls-1" d="M233.5,483.83c-1.32,0-2.51-.89-2.89-2.17-4.71-15.46-15.75-33.82-19.02-39.08-.06-.09-.11-.17-.14-.24-.94-1.38-.59-3.23.81-4.23.55-.36,1.1-.52,1.67-.52,1.02,0,1.99.52,2.59,1.38l.08.11.02.05.12.19c3.37,5.42,14.75,24.36,19.71,40.56.45,1.64-.41,3.24-1.94,3.75-.32.13-.67.2-1.01.2Z"/>
            <path class="cls-1" d="M155.87,585.86c-1.03,0-2.08,0-3.18-.12-.78,0-1.57,0-2.32-.04-2.15-.15-4.53-.44-7.1-.87-.49-.1-.92-.19-1.36-.29l-.69-.15c-1.97-.39-4.06-.97-6.03-1.66-.65-.24-1.25-.52-1.84-.78l-.37-.17c-.83-.4-1.54-.76-2.33-1.17-1.99-1.08-3.75-2.35-5.22-3.44-.73-.53-1.4-1.11-1.97-1.6-1.75-1.45-3.46-3.1-5.04-4.88-.47-.53-1.06-1.21-1.6-1.91l-.18-.21c-1.56-1.92-2.96-4.05-4.04-6.14-.66-1.27-1.16-2.51-1.57-3.89-.07-.15-.15-.36-.18-.61-.12-.34-.18-.63-.22-.87l-.03-.16c-.47-2.31-.27-4.32.6-5.96.39-.85.91-1.55,1.51-2.05,2.51-2.31,5.63-3.48,9.28-3.48,2.88,0,5.48.73,6.95,1.16l.11.02c.2.05.4.1.58.15.16.04.3.08.4.1l.13.02c1.57.22,2.71,1.51,2.71,3.06v.22c-.16,1.6-1.43,2.76-3.03,2.76h-.13c-.67,0-1.38-.15-2.34-.48l-.13-.03c-1.39-.38-3.29-.89-5.24-.89-.64,0-1.24.06-1.8.17-.65.13-1.3.35-1.85.62-.5.24-.99.59-1.5,1.08-.41.37-.52,1.3-.3,2.34,1.33,6.6,10.88,17.57,20.76,21.31,4.88,1.84,11.25,2.81,18.41,2.81,10.51,0,19.26-2.07,21.28-3.5.96-.71,1.74-3.99,1.26-9.69-.21-2.42-.58-4.5-.86-5.83l-.04-.17v-.17l-.09-.19v-.2s-.02-.09-.03-.14c-.09-.5-.05-1.01.11-1.47.11-.36.27-.61.43-.82.15-.25.34-.43.5-.56v-.69l1.62-.02c.16-.03.29-.03.36-.03.1,0,.22,0,.34.02h.26v.02h.46l.37.32c.12.06.22.14.32.21.24.16.43.35.59.58.31.31.5.67.57,1.06.05.17.12.41.19.78.6,2.78,2.39,12.4-.1,18.26-.26.84-.72,1.54-1.1,2.01-.52.77-1.08,1.32-1.72,1.7-3.77,2.65-14.07,4.57-24.57,4.57Z"/>
            <path class="cls-1" d="M181.52,602.81c-1.52,0-2.81-1.1-3-2.57-1.15-6.74,1.96-13.4,4.7-19.28l.31-.68c1.55-3.38,3.15-6.87,2.83-8.8-.72-4.73-5.45-12.61-7.85-16.12-.47-.7-.63-1.57-.44-2.4.18-.77.63-1.41,1.29-1.82.5-.36,1.08-.54,1.7-.54.98,0,1.91.47,2.48,1.27l.15.22c2.3,3.46,7.76,12.18,8.72,18.47.59,3.8-1.37,8.01-3.64,12.89-2.27,4.88-5.08,10.9-4.27,15.9.15.79-.05,1.64-.55,2.3-.49.65-1.24,1.08-2.05,1.16h-.09s-.29,0-.29,0Z"/>
            <path class="cls-1" d="M139.84,606.26c-.58,0-1.08,0-1.66-.06h-.16c-1-.05-1.96-.09-2.9-.27-1.15-.14-2.09-.35-2.85-.52l-.14-.03-.14-.06c-.11-.03-.21-.06-.33-.11-.59-.17-1.1-.34-1.59-.53-.4-.15-.82-.33-1.26-.51-.34-.14-.7-.29-1.06-.43-11.74-5.29-19.49-15.51-20.83-27.39-1.75-15.35,3.44-24.6,3.66-24.98l.06-.11.08-.1c.07-.09.17-.22.31-.36v-.18l1-.51c.37-.18.79-.27,1.2-.27.52,0,1.04.14,1.49.41.71.38,1.24,1.04,1.46,1.8.2.72.12,1.5-.24,2.18-.03.08-.07.15-.1.23-.21.47-.72,1.58-1.25,3.3-.05.16-.08.24-.1.32-.04.14-.09.28-.15.45-.78,2.49-1.34,5.89-1.54,9.49v.1c-.09.68-.12,1.48-.1,2.32,0,1.6.07,2.94.2,4.28v.09s0,.09,0,.09c0,.09.01.31.09.77v.1c1.46,13.33,12.18,21.13,20.92,23.77,1.43.44,3.41.66,5.88.66h0c9.02,0,21.92-2.98,25.65-3.89.78-.17,1.24-.34,1.25-.34l.19-.07.21-.03c.15-.02.3-.03.44-.03,1.48,0,2.69.89,3.09,2.27.4,1.66-.56,3.31-2.13,3.74l-.23.06h-.1c-1.09.28-3.91.92-7.17,1.64-.33.07-.63.13-.92.2-.55.12-1.09.24-1.64.33-2,.4-4.23.79-6.54,1.14-.5.08-1.01.15-1.54.22-.46.06-.93.12-1.41.2-2.79.33-5.36.52-7.68.57-.49.06-1.02.06-1.41.06Z"/>
            <path class="cls-1" d="M164.81,627.06c-.38,0-.88,0-1.41-.15h-.08c-1.02-.17-1.94-.41-2.75-.73-3.42-1.13-6.39-3.25-9.39-5.5l-.67-.49c-1.33-.97-2.59-1.88-3.75-2.51-.73-.42-1.54-.81-2.4-1.22-.54-.26-1.09-.52-1.63-.8l-.12-.05c-4.76-2.15-9.25-4.17-10.51-7.69-.62-1.83-.94-2.64-1.08-2.98-.18-.22-.38-.55-.47-.97-.32-1.03.04-2.2.92-2.94.54-.51,1.25-.79,2.02-.79.83,0,1.65.33,2.24.9l.07.07.06.08c.4.47.67.92,1.18,2.29.21.54.47,1.28.82,2.33.45,1.11,5.52,3.37,7.43,4.22l.1.04.09.06c.11.07.23.13.34.17.21.07.41.17.58.3,1.23.55,2.37,1.14,3.24,1.6,1.49.83,2.86,1.8,4.32,2.84l.87.61.33.25c1.79,1.33,3.65,2.71,5.47,3.7,1.24.61,2.47,1.02,3.59,1.18l.13.02c.15.03.32.05.53.05.19,0,.39-.01.6-.03.92-.05,1.89-.23,2.87-.53l.07-.02.07-.02c1.9-.41,4.24-1.32,6.6-2.56.73-.39,1.38-.78,2.24-1.33.65-.43,1.26-.93,1.84-1.53.43-.44.61-.72.68-.85-.62-2.83-3.75-5.42-9.98-9.72-1.36-.87-2.6-2.09-3.41-2.94-.6-.64-1.37-1.49-2.02-2.45-2.44-3.17-4.87-7.56-6.8-12.27l-.07-.16c-.63-1.54.07-3.23,1.61-3.98l.12-.06.13-.04c.3-.09.62-.14.93-.14,1.3,0,2.42.79,2.85,1.97.03.07.06.15.1.24,3,7.15,6.64,12.56,9.99,14.83,3.49,2.37,6.82,4.71,9.12,7.26,1.43,1.54,2.48,3.28,3.09,5.15l.14.49c.09.32.18.63.25.94l.02.09v.09c.18,1.41-.11,3.57-2.39,5.84-.97.91-1.96,1.67-2.96,2.3-.48.42-1,.72-1.49.99-3.85,2.24-9.78,4.52-14.24,4.52Z"/>
            <path class="cls-1" d="M167.68,625.7c-.66,0-1.25-.17-1.74-.51l-.13-.09-.05-.05-.07-.05c-3.21-2.52-5.58-5.18-7-6.97-3.16-3.84-10.29-11.71-10.88-12.32h0c-.59-.58-.91-1.35-.89-2.17.02-.81.39-1.6,1-2.17.54-.55,1.27-.85,2.06-.85s1.62.34,2.19.94c.13.15.42.46.86.95,2.07,2.28,7.58,8.34,10.4,11.83,2.47,3.12,4.95,5.11,5.71,5.69l.32.23c.67.48,1.12,1.22,1.24,2.04.12.8-.09,1.62-.56,2.25-.54.77-1.45,1.25-2.45,1.25Z"/>
            <path class="cls-1" d="M178.33,622.75c-.76,0-1.48-.27-2.04-.76,0,0-.05-.04-.08-.07-1.5-1.33-3.87-3.09-6.66-4.96-4.23-2.68-9.03-8.2-12.3-12.36l-.22-.28-.05-.08c-.92-1.32-.7-3.12.51-4.19l.1-.09.11-.07c.52-.34,1.12-.51,1.74-.51.98,0,1.9.46,2.46,1.25.02.03.05.06.08.1,1.53,1.96,6.82,8.57,10.87,11.14,4.18,2.78,6.33,4.54,7.13,5.21l.13.03.38.4c1.15,1.23,1.18,3.07.07,4.26-.6.64-1.36.98-2.21.98Z"/>
            <path class="cls-1" d="M158.51,624.56c-.5,0-.9-.13-1.22-.25l-.08-.03-.07-.04c-4.77-2.39-18.66-16.31-19.69-17.34-.61-.56-.96-1.34-.97-2.17,0-.83.35-1.63.96-2.19.57-.57,1.32-.88,2.11-.88s1.59.33,2.17.93c4.91,4.91,15.31,14.72,18.17,16.17,1.52.84,2.1,2.62,1.38,4.08-.52,1.06-1.58,1.72-2.76,1.72Z"/>
            <path class="cls-1" d="M183.15,614.25c-1.63,0-3.01-1.39-3.01-3.03v-.11c.07-1.02-.54-2.31-1.3-3.95l-.05-.11c-1.39-3.01-3.29-7.12-3.29-13.53,0-5.66,1.29-11.03,3.83-15.96.05-.13.1-.25.15-.36.25-.99,1.02-1.81,2-2.09.31-.11.64-.16.97-.16,1.31,0,2.46.84,2.85,2.09.41,1.24-.06,2.21-.51,3.15l-.07.13c-.86,1.78-3.15,6.5-3.15,13.21,0,4.99,1.53,8.29,2.75,10.95l.08.17c.98,2.17,1.9,4.23,1.87,6.63v.11c-.13,1.66-1.41,2.87-3.06,2.87h-.07Z"/>
            <path class="cls-1" d="M154.21,578.64c-5.64,0-13.73-.97-20.21-5.59-13.12-9.15-17.58-20.27-17.95-21.25-.31-.73-.31-1.53-.02-2.27.3-.76.92-1.38,1.68-1.69.39-.15.75-.22,1.13-.22,1.25,0,2.4.78,2.86,1.94v.02c.46,1.08,4.7,10.78,15.82,18.46,5.16,3.66,11.93,4.43,16.69,4.43,9.13,0,17.26-2.75,19.84-5.41,3.99-3.97,3.33-6.59,3.3-6.7-.56-1.52.26-3.29,1.85-3.88.36-.12.68-.17,1.01-.17,1.29,0,2.45.8,2.88,1.98.37,1.12,1.74,6.64-4.75,13.06-4.07,4.22-14.23,7.3-24.13,7.3Z"/>
            <path class="cls-1" d="M128.9,658.93c-2.01,0-3.84-.37-5.44-1.09-.58-.23-1.02-.5-1.42-.74l-.09-.06c-5.04-3.15-7.61-10.22-7.86-21.62-.33-18.04,11.23-32.41,12.88-34.38.04-.05.07-.1.11-.14l.02-.03.15-.16c.58-.61,1.4-.96,2.25-.96.71,0,1.4.25,1.94.7.89.71,1.28,1.92.98,2.98-.08.48-.29.94-.58,1.31l-.08.1-.03.02c-.76.9-11.85,14.36-11.56,30.41.22,9.04,1.91,14.65,5,16.67.96.58,2.22.89,3.7.89,2.43,0,5.49-.83,9.09-2.46,13.77-6.34,21.26-25.64,21.57-26.46l.03-.09s.12-.24.13-.28c.42-1.21,1.56-2.01,2.88-2.01.32,0,.63.05.94.14l.09.03.09.04c1.49.64,2.24,2.29,1.74,3.8-.03.1-.06.2-.11.3-.61,1.66-8.62,22.54-24.84,30.09-1.56.68-2.94,1.21-4.26,1.63-2.71.91-5.19,1.37-7.33,1.37Z"/>
            <path class="cls-1" d="M232.17,663.09h-.08c-1.28-.12-2.26-.38-3.08-.85-3.97-2.03-3.83-7.09-3.73-10.44v-.15c.04-2.35.09-5.02-.71-7.11-1.62-4.8-6.79-5.89-7.81-6.06h0c-.43-.06-.97-.22-.98-.22,0,0-.7-.2-2-.2-2.21,0-6.81.59-12.85,4.54-5.85,3.77-10.96,4.56-14.22,4.56-4.48,0-8.28-1.44-10.44-3.95-1.44-1.72-1.98-3.65-1.63-5.74.43-2.9,3.08-8.1,7.47-16.71l.8-1.57c4.76-9.27,11.28-21.96,17.73-36.82,4.84-11.16,8.29-23.65,11.62-35.72,3.85-13.88,7.82-28.21,13.97-40.49-.04-.08-.08-.17-.12-.27-1.85-3.85-.9-11.19,2.82-21.81l.16-.44c.39-1.11.84-2.36,1.39-3.71.16-.38.31-.75.46-1.13.3-.76.62-1.54.99-2.36l.09-.25c6.13-14.32,19.85-38.97,42.88-43.22,2.16-.41,4.49-.63,6.72-.64h.21s.1,0,.15,0c.28,0,.57,0,.88.05,4.51.14,8.64,1.11,12.27,2.91l.18.07c1.45.63,2.61,1.46,3.58,2.18,1.3.91,2.52,1.96,3.69,3.18.2.17.41.37.61.69.42.45.73.84,1.06,1.25l.07.09c6.27,8.15,7.8,19.78,4.31,32.73-1.1,3.9-2.11,7.71-3.09,11.4-.46,1.73-.91,3.43-1.36,5.11-.32,1.43-.7,2.82-1.08,4.15l-.09.34c-5.82,21.98-8.29,30.17-10.54,32.32-1.62,1.62-3.21,2.29-4.5,2.54-5.37,13.17-34.84,86.33-40.43,100.87-2.06,5.58-3.43,11.02-4.5,15.6l-.08.31c-1.96,8.04-3.65,14.98-10.21,14.98h-.59ZM232.75,656.99c1.72,0,2.88-4.43,4.33-10.69l.2-.79c1.07-4.35,2.39-9.75,4.61-15.47,4.09-10.81,21.86-54.96,32.48-81.33,4.68-11.62,8.38-20.81,8.61-21.45l.06-.17.12-.21c.42-.67.91-1.11,1.52-1.36.38-.19.8-.28,1.2-.28.28,0,.55.04.81.13l.06-.02.13-.02c.16-.04.6-.2,1.35-.92.24-.29.98-1.74,2.87-7.78.31-.97.61-2.02.9-3.12v-.04l.07-.29c.45-1.49,1.03-3.45,1.57-5.44.15-.49.27-.93.39-1.37.16-.58.31-1.16.5-1.74.56-1.98,1.12-4.11,1.69-6.28l.8-3.03c.14-.63.34-1.36.54-2.09.1-.36.2-.72.29-1.08.14-.57.31-1.19.5-1.81,1.03-3.99,2.15-8.17,3.34-12.58l1.03-3.82c1.65-6.01,2.06-11.81,1.18-16.76-.22-1.45-.6-2.96-1.11-4.43-.69-2.09-1.69-4.04-2.97-5.82l-.06-.08-.05-.09s-.28-.36-.28-.36c-.46-.66-.95-1.22-1.4-1.61l-.11-.11c-1.63-1.72-3.61-3.11-5.89-4.14-.74-.36-1.5-.66-2.18-.86-2.2-.73-4.33-1.11-6.74-1.24-.44-.03-.83-.04-1.23-.04s-.8.01-1.2.04c-1.56.06-3.11.24-4.65.53-.98.17-1.91.39-2.73.64-1.02.26-1.93.57-2.88.9-2.37.92-4.61,2.05-6.64,3.37l-.07.08-.19.12c-1.02.67-2.18,1.45-3.29,2.33l-.64.57c-11.12,9.1-18.68,23.56-23.09,34.17,0,.04-.08.4-.08.4l-.15.25s-.31.82-.31.82c-.53,1.35-.98,2.51-1.34,3.51-4.33,12.29-3.36,16.27-3.03,17.12.44.28.88.73,1.17,1.47.32.75.25,1.62-.18,2.43-.05.13-.11.26-.17.39-.02.05-.17.37-.17.37-5.94,11.32-9.75,24.88-13.79,39.23l-.31,1.11c-3.41,12.27-6.93,24.96-11.89,36.54-6.73,15.44-13.74,29.04-17.93,37.16l-.21.41c-4,7.8-7.16,13.97-7.48,16.07-.03.15-.07.37.25.8.33.36.86.7,1.58,1,.69.29,1.35.47,2.07.57l.12.02c.63.13,1.21.18,2.07.18,1.96,0,4.01-.39,6.11-1.16.99-.33,2.04-.81,3.17-1.43l.06-.04c.5-.29.97-.56,1.36-.86l.06-.04.06-.04c7.12-4.54,12.66-5.49,16.04-5.49,1.7,0,2.94.21,3.83.4l.19.04c6.42,1.25,10.96,4.83,12.78,10.06.75,2.18.93,4.39,1.01,6.46,0,1.04,0,2.05-.07,3.01-.02,1.45.01,2.39.11,3.14v.11c.13,1.75.36,1.78,1.21,1.82h.12Z"/>
            <path class="cls-1" d="M220.41,682.33c-2.98,0-6.18-.32-9.2-.64-7.69-.97-15.15-2.78-16.91-3.6-1.28-.55-2.11-1.06-2.92-1.58-1.28-.82-2.61-1.67-7.52-2.93-3.29-.78-5.55-2.96-6.18-5.97-1.11-5.08,2.47-11.52,4.96-13.66.19-.82-.03-3.48-.85-6.14-.46-1.71.43-3.36,2.02-3.82.27-.09.61-.15.96-.15,1.35,0,2.5.88,2.83,2.16.66,2.03,2.41,8.44-.29,11.72-.16.25-.34.45-.48.59l-.07.07-.14.13c-.09.08-.34.37-.56.64-.08.17-.19.32-.32.45-1.36,2.07-2.48,4.96-2.05,6.67.13.64.31,1.09,1.64,1.4,5.5,1.36,7.5,2.46,9.37,3.66.69.5,1.19.8,2.07,1.13l.08.03.07.03c1.9.92,15.04,3.74,23.95,3.74,5.05,0,6.42-.91,6.72-1.19,1.02-.97,1.7-2.08,1.96-3.2l.02-.08.03-.08c.29-.88.39-1.77.31-2.81-.1-2.71-1.22-5.05-1.64-5.93l-.02-.04c-.57-.96-.5-2.25.19-3.25l.14-.21.2-.16.09-.08c.14-.12.33-.29.57-.43.48-.26.97-.39,1.47-.39,1.12,0,2.17.63,2.73,1.65l.06.11.04.11s.04.12.07.18c2.03,4.09,2.71,8.26,1.97,11.83-.04.27-.12.56-.23.88l-.02.08c-.64,2.36-1.94,4.51-3.75,6.23l-.08.07c-.71.59-1.45,1.03-2.2,1.33-2.11.94-5.18,1.43-9.05,1.43Z"/>
            <path class="cls-1" d="M232.75,675.17c-1.15,0-2.17-.6-2.72-1.6,0,0-.04-.05-.07-.08l-.08-.08-.07-.09c-.87-1.17-3.04-3.52-7.81-6.05-3.81-2.12-8.55-2.12-14.56-2.12l-1.88-.04c-3.4-.06-7.25-.13-11.48-.55-7.05-.85-10.94-1.93-11.4-5.2-.06-.33-.06-.77,0-1.21l.22-1.5h.44c.4-.56.95-1.05,1.62-1.43l.16-.09.17-.05s.07-.04.12-.06c.43-.22.89-.33,1.35-.33,1.19,0,2.27.72,2.77,1.83.17.38.26.78.27,1.18,1.03.25,2.6.53,4.93.77,4.28.5,8.17.54,11.6.59,0,0,1.24.01,1.29.01,6.27,0,12.22.02,17.31,2.92,3.94,2.02,6.49,4.14,7.92,5.56,1.3,1.25,2,2.27,2.32,2.75l.11.08.2.41c.21.44.29.78.29,1.25v.2c-.04.26-.11.54-.21.85v.17l-.24.46c-.26.44-.6.72-.87.94l-.09.08-.1.06c-.63.39-1.2.39-1.5.39Z"/>
            <path class="cls-1" d="M285.94,530.23c-.44,0-.92-.15-1.42-.45-.17-.08-.32-.17-.47-.26l-.11-.06-.17-.06-.09-.07c-1.97-1.23-3.91-2.37-5.94-3.48-.32-.17-.66-.36-1-.54-.41-.23-.81-.45-1.19-.64l-.09-.05c-1.3-.75-2.65-1.44-3.95-2.11-.6-.31-1.18-.61-1.75-.91-.78-.41-1.47-.74-2.16-1.02l-.11-.05c-3-1.5-5.79-2.72-7.88-3.62-.44-.2-.87-.36-1.28-.53-.39-.15-.77-.3-1.13-.46-3.06-1.25-6.17-2.37-9.48-3.42-.69-.16-1.33-.37-1.9-.55-.23-.08-.46-.15-.68-.22-2.24-.65-4.4-1.19-6.21-1.57-.43-.1-.82-.18-1.2-.26-.48-.1-.94-.2-1.37-.3-2.36-.42-4.04-.58-5.15-.69l-.72-.07c-.41-.02-.63-.03-.67-.03-1.66,0-3-1.36-3-3.02s1.35-3.07,3-3.07h.52l.65.05c.61.04,1.43.1,2.48.22l2.66.35c5.06.84,13.3,2.78,24.26,7.28.17.03.31.08.42.12h0c9.09,3.8,17.84,8.32,26.76,13.8.87.47,1.44,1.38,1.46,2.4.05.81-.16,1.48-.6,2.01-.63.81-1.54,1.28-2.5,1.28Z"/>
            <path class="cls-1" d="M294.1,520.01c-1.25,0-2.34-.74-2.86-1.94-.04-.09-.09-.22-.13-.37-.53-1.14-3.93-7.37-17.58-12.18-15.99-5.58-33.41-7.17-34.15-7.24-.53-.02-.92-.07-.92-.07-1.67-.22-2.87-1.71-2.7-3.33.12-1.53,1.43-2.72,2.99-2.72.08,0,.16,0,.24,0,.27,0,.9.05,1.77.12,4.53.49,20.33,2.47,34.81,7.55,11.41,3.95,16.96,9.15,19.6,12.82l.33.46v.04c.91,1.32,1.42,2.44,1.56,3.08.39,1.56-.48,3.16-1.99,3.67l-.27.09h-.7Z"/>
            <path class="cls-1" d="M294.38,509.99l-.23-.37c-.84-.45-1.43-1.3-1.56-2.26-.23-.29-.69-.79-1.61-1.53-1.68-1.42-4.98-3.78-11.4-7.13-12.66-6.69-30.34-9.41-35.45-10.08-.08-.01-.16-.02-.22-.03-.33-.02-.57-.12-.73-.18l-.09-.03-.12-.05c-1.22-.62-1.91-1.85-1.76-3.13.13-1.48,1.5-2.68,3.12-2.68,0,0,.16,0,.16,0,.13,0,.34.02.57.07,3.9.49,23.07,3.19,37.32,10.71,8.25,4.27,13.4,7.95,15.29,10.93.75,1.15,1.09,2.24.96,3.13-.23,1.48-1.54,2.63-2.99,2.63h-1.25Z"/>
            <path class="cls-1" d="M300.06,498.64c-1.17,0-2.23-.65-2.77-1.7l-.19-.37v-.06c-.55-.93-4.52-6.68-17.73-10.78-14.92-4.68-30.06-6.64-31.73-6.85h-.11s-.6-.17-.6-.17c-.76-.11-1.46-.5-1.94-1.09-.52-.63-.76-1.42-.68-2.23l.02-.11c.25-1.52,1.53-2.62,3.02-2.62.11,0,.22,0,.33.02.19.02.58.07,1.5.22,1.27.17,5.27.71,10.25,1.67.38.07.76.14,1.14.22.45.09.9.18,1.39.26,2.65.53,5.75,1.18,9.03,2.01l.33.08c.7.18,1.36.35,2.12.48h.08s.08.03.08.03c2.51.67,5.06,1.43,7.23,2.09l.23.07.03.02c.06.01.11.03.16.05.83.28,1.44.49,2.15.78,2.01.64,4.04,1.45,6.19,2.47.87.46,1.61.84,2.33,1.2l.09.05c1.7.98,3.13,1.92,4.37,2.87.89.61,1.68,1.31,2.32,1.92.82.71,1.42,1.41,1.96,2.02l.21.25c1.55,1.84,2,3,2.02,3.04.21.52.27,1.14.16,1.8l-.02.13-.04.13c-.28.84-.91,1.52-1.72,1.86l-.12.05-.13.03c-.24.06-.6.13-.95.13Z"/>
            <path class="cls-1" d="M234.52,508.04c-.41,0-.81-.08-1.21-.26-1.3-.61-2.01-2.01-1.76-3.33,0-.06.02-.11.03-.16v-.18l25.16-58.86.14-.37,1.82-4.26c.44-1.1,1.61-1.87,2.9-1.87.37,0,.73.07,1.07.19.82.35,1.4.95,1.7,1.71.29.73.28,1.53-.02,2.26l-.16.5-.13.15-13.58,31.76-1.01,2.48-3.08,7.19-.99,2.42-3.18,7.31-1.07,2.5-3.65,8.64-.26.44c-.53,1.09-1.54,1.73-2.71,1.73Z"/>
            <path class="cls-1" d="M260.27,479.96c-.41,0-.73-.12-.89-.2-.72-.21-1.33-.68-1.72-1.33-.42-.71-.53-1.57-.31-2.36l11.3-39.42c.29-1.26,1.55-2.24,2.96-2.24.31,0,.61.05.89.14,1.59.5,2.48,2.17,2,3.79l-11.27,39.36c-.43,1.35-1.64,2.27-2.96,2.27Z"/>
            <path class="cls-1" d="M271.83,482.1c-.21,0-.45,0-.81-.1-1.5-.37-2.46-1.86-2.22-3.38v-.04l.05-.24,10.04-42.05.37-1.63c.1-.6.46-1.57,1.8-2.16l.22-.1.36-.06c.19-.04.39-.07.59-.07.22,0,.43.03.64.08.26.04.5.12.72.26,1.32.63,1.97,2.05,1.57,3.42l-.51,2.42h-.05l-9.7,41.09v.07l-.08.3c-.42,1.32-1.61,2.2-2.97,2.2Z"/>
            <path class="cls-1" d="M280.97,485.46l-.15-.03c-.8-.14-1.52-.62-1.97-1.33-.42-.66-.57-1.44-.44-2.19l.18-.84,10.07-43.48.09-.49.02-.07c.37-1.34,1.58-2.28,2.93-2.28.24,0,.47.03.71.08.74.17,1.43.66,1.86,1.36.44.7.59,1.52.41,2.31l-.22.86-9.98,43.44-.14.42c-.32,1.33-1.49,2.24-2.87,2.24h-.5Z"/>
            <path class="cls-1" d="M290.02,488.37c-.15,0-.29-.01-.42-.03h-.13l-.2-.04c-.76-.18-1.42-.65-1.84-1.33-.43-.7-.57-1.55-.38-2.34l10.61-42.32c.39-1.37,1.59-2.28,2.93-2.28.28,0,.56.04.83.12.71.16,1.41.67,1.84,1.38.42.7.54,1.54.32,2.3l-10.61,42.33-.02.06c-.43,1.28-1.61,2.14-2.94,2.14Z"/>
            <path class="cls-1" d="M296.24,493.08c-.14,0-.49,0-.87-.16-1.48-.48-2.39-2.08-2.02-3.62l8.9-36.8c.32-1.37,1.51-2.33,2.88-2.33.28,0,.57.04.84.13.82.22,1.51.76,1.9,1.49.37.67.45,1.47.23,2.19l-8.89,36.77c-.31,1.36-1.54,2.33-2.98,2.33Z"/>
            <path class="cls-1" d="M182.53,646.49c-.2,0-.49-.03-.75-.07l-.31-.04-.28-.15c-1.37-.74-2.01-2.34-1.51-3.82l.04-.1,55.94-136.31c.38-1.1,1.54-1.9,2.83-1.9.34,0,.68.05,1,.16l.08.03.08.03c.79.35,1.4,1.01,1.69,1.82.26.74.23,1.51-.08,2.2l-55.86,136.28c-.51,1.16-1.63,1.87-2.86,1.87Z"/>
            <path class="cls-1" d="M194.65,644.91c-.26,0-.82,0-1.34-.34-1.3-.68-1.95-2.07-1.6-3.44.03-.14.07-.26.1-.36l52.22-131.36.52-1.17c.45-1.1,1.56-1.84,2.8-1.84.36,0,.72.06,1.06.19,1.59.63,2.34,2.24,1.83,3.84l-.05.13-.38.92-38.53,96.98-1.62,3.99h-.04l-11.16,28.15-.98,2.46-.03.07c-.56,1.12-1.61,1.78-2.8,1.78Z"/>
            <path class="cls-1" d="M226.02,609.02c-.29,0-.48,0-.79-.05l-.19-.03-.17-.07c-.79-.32-1.39-.92-1.71-1.68-.31-.75-.31-1.58,0-2.34l.17-.5,32.93-90.62.45-1.2c.36-1.16,1.51-2,2.84-2,.23,0,.46.03.69.08.4.04.67.18.81.26,1.32.77,1.93,2.38,1.4,3.75l-.51,1.32-32.31,89-.8,2.11c-.38,1.15-1.52,1.98-2.82,1.98Z"/>
            <path class="cls-1" d="M236.15,613.67c-.27,0-.56,0-.86-.08l-.27-.06-.24-.14c-.32-.19-.74-.45-1.13-1l-.1-.14-.22-.49c-.32-.67-.32-1.48,0-2.23l1.21-3.25,32.09-87.84.26-.86.02-.06c.43-1.16,1.61-1.97,2.87-1.97.36,0,.71.07,1.04.2,1.59.59,2.39,2.3,1.83,3.9l-.43,1.08-33.05,90.7-.19.38c-.41,1.12-1.53,1.88-2.81,1.88Z"/>
            <path class="cls-1" d="M240.61,626.6c-.25,0-.72,0-1.21-.25l-.09-.05c-.23-.12-.59-.32-.9-.66l-.26-.16-.27-.65-.32-.97v-.28c0-.45.06-.71.16-1.01l1.35-3.58,35.62-96.43.22-.77c.43-1.22,1.56-2.04,2.82-2.04.38,0,.76.07,1.12.22.71.26,1.3.79,1.65,1.49.36.73.42,1.58.16,2.32l-.43,1.15-36.48,98.86-.05.2-.19.58c-.47,1.24-1.62,2.02-2.9,2.02Z"/>
            <path class="cls-1" d="M228.82,657.35c-.27,0-.74-.04-1.2-.28-.65-.26-1.19-.77-1.5-1.43-.37-.78-.4-1.71-.07-2.48l1.97-4.84,9.76-23.77-.23-.69v-.03l-4.1-11.82-.16-.36-1.31-3.68-23.33,4.48h-.05c-.13.02-.27.03-.41.03-1.4,0-2.63-1.05-2.93-2.5-.26-1.74.78-3.24,2.41-3.58l1.67-.31,15.33-2.89,3-.58,5.72-1.09c.2-.04.39-.05.58-.05,1.29,0,2.43.8,2.85,1.98l1.02,2.82,1.38,3.84,3.15,8.91,1.43,4.07.29.68.02.28c.04.44.04,1.08-.17,1.64l-12.3,29.81-.03.05c-.16.33-.38.77-.89,1.14-.35.23-.97.64-1.88.64Z"/>
            <path class="cls-1" d="M134.1,411.57c-.56,0-1.11-.14-1.62-.4l-.18-.09-.15-.13c-.65-.55-1.06-1.35-1.12-2.18-.06-.75.17-1.48.65-2.05,44.16-58.25,37.38-123.51,36.46-130.77,0-.07-.02-.12-.02-.17-.12-.84.09-1.69.59-2.33.47-.6,1.14-.99,1.91-1.09.18-.04.37-.05.55-.05,1.44,0,2.72,1.08,2.97,2.52l.03.21c.98,7.49,8.24,74.88-37.68,135.35-.51.73-1.41,1.19-2.38,1.19Z"/>
            <path class="cls-1" d="M146.83,601.85c-8.72,0-16.36-2.15-22.71-6.4-9.01-6.15-13.03-15.18-14.62-20.02-.89-2.73-1.27-4.83-1.39-5.52l-.03-.15-.06-.22.02-.16v-.16c0-.17,0-.45.1-.79l.04-.16.04-.11c.39-1.07,1.31-1.81,2.46-1.98l.13-.02h.25c1.48,0,2.8,1.09,3.07,2.53l.06.16v.27c.2.99.71,3.6,2.1,6.88.51,1.27.99,2.28,1.52,3.2l.05.09c1.03,2.06,2.44,4.14,4.06,5.99.59.71,1.19,1.41,1.91,2.01l.06.05.05.05c.95.96,2.15,1.94,3.65,3,.87.61,1.62,1.07,2.3,1.4l.38.2c.62.33,1.27.66,1.92.89l.13.05c2.87,1.31,6.19,2.15,9.88,2.51.69.08,1.55.17,2.44.17h.13c.83.07,1.71.1,2.59.1,1.77,0,3.7-.13,5.91-.39.8-.08,1.57-.2,2.39-.36l.12-.02c2.09-.27,4.26-.69,6.47-1.24.28-.08.57-.12.85-.12,1.38,0,2.57.96,2.88,2.34.19.74.06,1.6-.38,2.31-.44.71-1.12,1.19-1.92,1.36-6.1,1.49-11.78,2.25-16.83,2.25Z"/>
            <path class="cls-1" d="M154.77,600.1c-1.4,0-2.58-.9-2.95-2.24l-3.23-12.64c-.41-1.6.57-3.25,2.17-3.67.29-.07.53-.1.77-.1,1.42,0,2.65.94,2.99,2.28l3.23,12.57c.4,1.65-.55,3.24-2.2,3.73l-.24.07h-.54Z"/>
            <path class="cls-1" d="M143.33,601.02c-1.63,0-2.95-1.26-3.01-2.87l-.07-.82-.91-13.42c-.1-.97.34-1.96,1.16-2.6l.07-.06.08-.05c.31-.19.9-.56,1.68-.56,1.15,0,2.23.65,2.76,1.65.13.23.34.67.36,1.24l.89,13.72.03.55c.08,1.68-1.18,3.09-2.86,3.21h-.06s-.13,0-.13,0Z"/>
            <path class="cls-1" d="M129.86,597.8h-.1c-1.61-.2-2.78-1.72-2.6-3.41v-.11s.04-.1.04-.1c.04-.19.08-.42.11-.64l.07-.47c1.16-7.02,1.99-12.45,2-13.19,0-.67.22-1.28.67-1.84.36-.55.89-.95,1.52-1.13.22-.08.55-.14.89-.14,1.29,0,2.45.82,2.9,2.03l.04.12.03.12c.08.33.12.69.03,1.32-.09,1.38-.56,4.58-2.16,14.45v.08s-.03.08-.03.08c-.03.2-.06.33-.09.46-.32,1.38-1.57,2.37-2.98,2.37h-.33Z"/>
            <path class="cls-1" d="M121.41,591.43c-.19,0-.35-.02-.51-.05h-.22l-.29-.11c-1.57-.58-2.4-2.21-1.94-3.79l3.87-12.99c.43-1.31,1.64-2.19,2.96-2.19.29,0,.59.04.86.13.77.23,1.44.76,1.82,1.5.38.72.45,1.55.19,2.32l-3.85,12.98c-.36,1.28-1.55,2.19-2.89,2.19Z"/>
            <path class="cls-1" d="M115.11,582.65c-.29,0-.54-.05-.71-.09l-.12-.02-.18-.05c-1.56-.53-2.41-2.2-1.94-3.8l3.67-11.15c.51-1.3,1.62-2.08,2.87-2.08.34,0,.67.06.99.17.75.23,1.36.74,1.74,1.43.39.72.48,1.58.24,2.34l-3.68,11.12c-.35,1.22-1.54,2.12-2.88,2.12Z"/>
            <path class="cls-1" d="M110.58,572.22l-.2-.05c-.79-.19-1.48-.71-1.91-1.42-.42-.71-.54-1.54-.33-2.33l2.5-10.78c.28-1.36,1.52-2.37,2.93-2.37.25,0,.49.03.73.09.75.16,1.46.66,1.89,1.36.43.7.55,1.52.34,2.32l-2.48,10.82c-.38,1.43-1.56,2.35-2.95,2.35h-.52Z"/>
        </g>
    </g>
</svg>
